<svg width="99" height="50" viewBox="0 0 99 50" fill="none" xmlns="http://www.w3.org/2000/svg">
    <path d="M41.25 25.037C41.25 24.8406 41.329 24.6522 41.4697 24.5133C41.6103 24.3743 41.8011 24.2963 42 24.2963H57C57.1989 24.2963 57.3897 24.3743 57.5303 24.5133C57.671 24.6522 57.75 24.8406 57.75 25.037C57.75 25.2335 57.671 25.4219 57.5303 25.5608C57.3897 25.6997 57.1989 25.7778 57 25.7778H42C41.8011 25.7778 41.6103 25.6997 41.4697 25.5608C41.329 25.4219 41.25 25.2335 41.25 25.037ZM40.5 8H58.5C58.5 8 61.5 8 61.5 10.963V19.8519C61.5 19.8519 61.5 22.8148 58.5 22.8148H40.5C40.5 22.8148 37.5 22.8148 37.5 19.8519V10.963C37.5 10.963 37.5 8 40.5 8Z" fill="#999999"/>
    <path d="M17.371 46V36.844H22.887V38.216H18.995V40.554H22.285V41.926H18.995V44.628H23.027V46H17.371ZM26.3322 46.168C25.7629 46.168 25.3569 45.9953 25.1142 45.65C24.8809 45.3047 24.7642 44.8333 24.7642 44.236V36.116H26.3742V44.32C26.3742 44.516 26.4115 44.656 26.4862 44.74C26.5609 44.8147 26.6402 44.852 26.7242 44.852C26.7615 44.852 26.7942 44.852 26.8222 44.852C26.8595 44.8427 26.9109 44.8333 26.9762 44.824L27.1862 46.028C27.0929 46.0653 26.9715 46.098 26.8222 46.126C26.6822 46.154 26.5189 46.168 26.3322 46.168ZM31.505 46.168C30.8703 46.168 30.2963 46.028 29.783 45.748C29.2696 45.4587 28.8636 45.048 28.565 44.516C28.2663 43.9747 28.117 43.326 28.117 42.57C28.117 41.8233 28.2663 41.1793 28.565 40.638C28.873 40.0967 29.2696 39.6813 29.755 39.392C30.2403 39.1027 30.749 38.958 31.281 38.958C31.9063 38.958 32.429 39.098 32.849 39.378C33.269 39.6487 33.5863 40.0313 33.801 40.526C34.0156 41.0113 34.123 41.576 34.123 42.22C34.123 42.556 34.0996 42.8173 34.053 43.004H29.685C29.7596 43.6107 29.979 44.082 30.343 44.418C30.707 44.754 31.1643 44.922 31.715 44.922C32.0136 44.922 32.289 44.88 32.541 44.796C32.8023 44.7027 33.059 44.5767 33.311 44.418L33.857 45.426C33.5303 45.6407 33.1663 45.818 32.765 45.958C32.3636 46.098 31.9436 46.168 31.505 46.168ZM29.671 41.912H32.723C32.723 41.38 32.6063 40.9647 32.373 40.666C32.1396 40.358 31.7896 40.204 31.323 40.204C30.9216 40.204 30.5623 40.3533 30.245 40.652C29.937 40.9413 29.7456 41.3613 29.671 41.912ZM38.5307 46.168C37.9053 46.168 37.3407 46.028 36.8367 45.748C36.342 45.4587 35.9453 45.048 35.6467 44.516C35.3573 43.9747 35.2127 43.326 35.2127 42.57C35.2127 41.8047 35.3713 41.156 35.6887 40.624C36.006 40.0827 36.426 39.672 36.9487 39.392C37.4807 39.1027 38.05 38.958 38.6567 38.958C39.0953 38.958 39.478 39.0327 39.8047 39.182C40.1313 39.3313 40.4207 39.5133 40.6727 39.728L39.8887 40.778C39.7113 40.6193 39.5293 40.498 39.3427 40.414C39.156 40.3207 38.9553 40.274 38.7407 40.274C38.19 40.274 37.7373 40.484 37.3827 40.904C37.0373 41.324 36.8647 41.8793 36.8647 42.57C36.8647 43.2513 37.0327 43.802 37.3687 44.222C37.714 44.642 38.1573 44.852 38.6987 44.852C38.9693 44.852 39.2213 44.796 39.4547 44.684C39.6973 44.5627 39.9167 44.4227 40.1127 44.264L40.7707 45.328C40.4533 45.608 40.0987 45.818 39.7067 45.958C39.3147 46.098 38.9227 46.168 38.5307 46.168ZM44.4128 46.168C43.6194 46.168 43.0548 45.9393 42.7188 45.482C42.3921 45.0153 42.2288 44.4133 42.2288 43.676V40.4H41.2488V39.196L42.3128 39.126L42.5088 37.25H43.8528V39.126H45.6028V40.4H43.8528V43.676C43.8528 44.4787 44.1748 44.88 44.8188 44.88C44.9401 44.88 45.0661 44.866 45.1968 44.838C45.3274 44.8007 45.4394 44.7633 45.5328 44.726L45.8128 45.916C45.6261 45.9813 45.4114 46.0373 45.1688 46.084C44.9354 46.14 44.6834 46.168 44.4128 46.168ZM47.0493 46V39.126H48.3793L48.4913 40.344H48.5473C48.79 39.896 49.084 39.5553 49.4293 39.322C49.7747 39.0793 50.1293 38.958 50.4933 38.958C50.82 38.958 51.0813 39.0047 51.2773 39.098L50.9973 40.498C50.876 40.4607 50.764 40.4327 50.6613 40.414C50.5587 40.3953 50.4327 40.386 50.2833 40.386C50.0127 40.386 49.728 40.4933 49.4293 40.708C49.1307 40.9133 48.874 41.2773 48.6593 41.8V46H47.0493ZM54.9493 46.168C54.3799 46.168 53.8479 46.028 53.3533 45.748C52.8586 45.4587 52.4573 45.048 52.1493 44.516C51.8413 43.9747 51.6873 43.326 51.6873 42.57C51.6873 41.8047 51.8413 41.156 52.1493 40.624C52.4573 40.0827 52.8586 39.672 53.3533 39.392C53.8479 39.1027 54.3799 38.958 54.9493 38.958C55.5279 38.958 56.0646 39.1027 56.5593 39.392C57.0539 39.672 57.4553 40.0827 57.7633 40.624C58.0713 41.156 58.2253 41.8047 58.2253 42.57C58.2253 43.326 58.0713 43.9747 57.7633 44.516C57.4553 45.048 57.0539 45.4587 56.5593 45.748C56.0646 46.028 55.5279 46.168 54.9493 46.168ZM54.9493 44.852C55.4533 44.852 55.8499 44.642 56.1393 44.222C56.4286 43.802 56.5733 43.2513 56.5733 42.57C56.5733 41.8793 56.4286 41.324 56.1393 40.904C55.8499 40.484 55.4533 40.274 54.9493 40.274C54.4453 40.274 54.0486 40.484 53.7593 40.904C53.4793 41.324 53.3393 41.8793 53.3393 42.57C53.3393 43.2513 53.4793 43.802 53.7593 44.222C54.0486 44.642 54.4453 44.852 54.9493 44.852ZM59.8189 46V39.126H61.1489L61.2609 40.05H61.3169C61.6249 39.7513 61.9609 39.4947 62.3249 39.28C62.6889 39.0653 63.1042 38.958 63.5709 38.958C64.3082 38.958 64.8449 39.196 65.1809 39.672C65.5169 40.148 65.6849 40.82 65.6849 41.688V46H64.0749V41.898C64.0749 41.3287 63.9909 40.9273 63.8229 40.694C63.6549 40.4607 63.3795 40.344 62.9969 40.344C62.6982 40.344 62.4322 40.4187 62.1989 40.568C61.9749 40.708 61.7182 40.918 61.4289 41.198V46H59.8189ZM67.6529 46V39.126H69.2629V46H67.6529ZM68.4649 37.922C68.1755 37.922 67.9422 37.838 67.7649 37.67C67.5875 37.502 67.4989 37.278 67.4989 36.998C67.4989 36.7273 67.5875 36.508 67.7649 36.34C67.9422 36.172 68.1755 36.088 68.4649 36.088C68.7542 36.088 68.9875 36.172 69.1649 36.34C69.3422 36.508 69.4309 36.7273 69.4309 36.998C69.4309 37.278 69.3422 37.502 69.1649 37.67C68.9875 37.838 68.7542 37.922 68.4649 37.922ZM74.1869 46.168C73.5616 46.168 72.9969 46.028 72.4929 45.748C71.9983 45.4587 71.6016 45.048 71.3029 44.516C71.0136 43.9747 70.8689 43.326 70.8689 42.57C70.8689 41.8047 71.0276 41.156 71.3449 40.624C71.6623 40.0827 72.0823 39.672 72.6049 39.392C73.1369 39.1027 73.7063 38.958 74.3129 38.958C74.7516 38.958 75.1343 39.0327 75.4609 39.182C75.7876 39.3313 76.0769 39.5133 76.3289 39.728L75.5449 40.778C75.3676 40.6193 75.1856 40.498 74.9989 40.414C74.8123 40.3207 74.6116 40.274 74.3969 40.274C73.8463 40.274 73.3936 40.484 73.0389 40.904C72.6936 41.324 72.5209 41.8793 72.5209 42.57C72.5209 43.2513 72.6889 43.802 73.0249 44.222C73.3703 44.642 73.8136 44.852 74.3549 44.852C74.6256 44.852 74.8776 44.796 75.1109 44.684C75.3536 44.5627 75.5729 44.4227 75.7689 44.264L76.4269 45.328C76.1096 45.608 75.7549 45.818 75.3629 45.958C74.9709 46.098 74.5789 46.168 74.1869 46.168ZM79.7017 46.168C79.2351 46.168 78.7684 46.0793 78.3017 45.902C77.8351 45.7153 77.4337 45.4867 77.0977 45.216L77.8537 44.18C78.1617 44.4133 78.4697 44.6 78.7777 44.74C79.0857 44.88 79.4124 44.95 79.7577 44.95C80.1311 44.95 80.4064 44.8707 80.5837 44.712C80.7611 44.5533 80.8497 44.3573 80.8497 44.124C80.8497 43.928 80.7751 43.7693 80.6257 43.648C80.4857 43.5173 80.3037 43.4053 80.0797 43.312C79.8557 43.2093 79.6224 43.1113 79.3797 43.018C79.0811 42.906 78.7824 42.7707 78.4837 42.612C78.1944 42.444 77.9564 42.234 77.7697 41.982C77.5831 41.7207 77.4897 41.3987 77.4897 41.016C77.4897 40.4093 77.7137 39.9147 78.1617 39.532C78.6097 39.1493 79.2164 38.958 79.9817 38.958C80.4671 38.958 80.9011 39.042 81.2837 39.21C81.6664 39.378 81.9977 39.5693 82.2777 39.784L81.5357 40.764C81.2931 40.5867 81.0457 40.4467 80.7937 40.344C80.5511 40.232 80.2944 40.176 80.0237 40.176C79.6784 40.176 79.4217 40.2507 79.2537 40.4C79.0857 40.54 79.0017 40.7173 79.0017 40.932C79.0017 41.2027 79.1417 41.408 79.4217 41.548C79.7017 41.688 80.0284 41.8233 80.4017 41.954C80.7191 42.066 81.0271 42.206 81.3257 42.374C81.6244 42.5327 81.8717 42.7427 82.0677 43.004C82.2731 43.2653 82.3757 43.6107 82.3757 44.04C82.3757 44.628 82.1471 45.132 81.6897 45.552C81.2324 45.9627 80.5697 46.168 79.7017 46.168Z" fill="#999999"/>
    </svg>
    