<svg width="30" height="30" viewBox="0 0 20 20" fill="none" xmlns="http://www.w3.org/2000/svg">
<circle cx="10" cy="10" r="10" fill="white"/>
<path d="M7.5 18C8.88071 18 10 16.8807 10 15.5V13H7.5C6.11929 13 5 14.1193 5 15.5C5 16.8807 6.11929 18 7.5 18Z" fill="#0ACF83"/>
<path d="M5 10.5C5 9.11929 6.11929 8 7.5 8H10V13H7.5C6.11929 13 5 11.8807 5 10.5Z" fill="#A259FF"/>
<path d="M5 5.5C5 4.11929 6.11929 3 7.5 3H10V8H7.5C6.11929 8 5 6.88071 5 5.5Z" fill="#F24E1E"/>
<path d="M10 3H12.5C13.8807 3 15 4.11929 15 5.5C15 6.88071 13.8807 8 12.5 8H10V3Z" fill="#FF7262"/>
<path d="M15 10.5C15 11.8807 13.8807 13 12.5 13C11.1193 13 10 11.8807 10 10.5C10 9.11929 11.1193 8 12.5 8C13.8807 8 15 9.11929 15 10.5Z" fill="#1ABCFE"/>
</svg>
