<svg width="118" height="50" viewBox="0 0 118 50" fill="none" xmlns="http://www.w3.org/2000/svg">
    <path d="M51.0161 8.08603C51.0242 8.13443 51.0618 8.40334 51.0995 8.68569C51.1371 8.96536 51.1748 9.22351 51.1829 9.25578L51.1936 9.31763H58.9892H66.7822L66.8682 8.70452C66.9139 8.36838 66.9516 8.07258 66.9516 8.04569C66.9516 8.00267 66.5536 7.99998 58.9758 7.99998H51L51.0161 8.08603Z" fill="#999999"/>
    <path d="M51.3012 10.1432C51.3012 10.1648 51.3361 10.4229 51.718 13.2034C51.8121 13.8972 51.9896 15.1799 52.1079 16.0538C52.323 17.6296 52.5516 19.3049 52.8071 21.1631C52.8797 21.6955 52.998 22.5506 53.0679 23.0643L53.1943 24.0001H58.9839H64.7708L64.7869 23.9113C64.795 23.8656 64.8595 23.3843 64.9348 22.8438C65.0074 22.3033 65.1284 21.4212 65.201 20.8807C65.2763 20.3402 65.435 19.1839 65.5533 18.3127C65.6716 17.4387 65.8303 16.2878 65.9029 15.75C66.2255 13.3943 66.3143 12.7517 66.481 11.5362C66.5751 10.8263 66.6585 10.2185 66.6666 10.1836L66.6746 10.1244H58.9892C54.7593 10.1244 51.3012 10.1325 51.3012 10.1432Z" fill="#999999"/>
    <path d="M21.2939 46.168C20.4726 46.168 19.7352 45.986 19.0819 45.622C18.4286 45.258 17.9152 44.726 17.5419 44.026C17.1686 43.3167 16.9819 42.458 16.9819 41.45C16.9819 40.4513 17.1732 39.5973 17.5559 38.888C17.9386 38.1693 18.4566 37.6233 19.1099 37.25C19.7632 36.8673 20.4959 36.676 21.3079 36.676C21.9612 36.676 22.5119 36.7973 22.9599 37.04C23.4172 37.2733 23.7906 37.5393 24.0799 37.838L23.2119 38.888C22.9786 38.664 22.7172 38.4773 22.4279 38.328C22.1479 38.1693 21.7932 38.09 21.3639 38.09C20.5519 38.09 19.8939 38.3887 19.3899 38.986C18.8952 39.574 18.6479 40.3813 18.6479 41.408C18.6479 42.4533 18.8859 43.2747 19.3619 43.872C19.8379 44.46 20.5332 44.754 21.4479 44.754C21.7092 44.754 21.9566 44.7213 22.1899 44.656C22.4232 44.5813 22.6146 44.4787 22.7639 44.348V42.374H21.0279V41.044H24.2199V45.076C23.9119 45.384 23.5012 45.6453 22.9879 45.86C22.4839 46.0653 21.9192 46.168 21.2939 46.168ZM29.0489 46.168C28.4142 46.168 27.8402 46.028 27.3269 45.748C26.8136 45.4587 26.4076 45.048 26.1089 44.516C25.8102 43.9747 25.6609 43.326 25.6609 42.57C25.6609 41.8233 25.8102 41.1793 26.1089 40.638C26.4169 40.0967 26.8136 39.6813 27.2989 39.392C27.7842 39.1027 28.2929 38.958 28.8249 38.958C29.4502 38.958 29.9729 39.098 30.3929 39.378C30.8129 39.6487 31.1302 40.0313 31.3449 40.526C31.5596 41.0113 31.6669 41.576 31.6669 42.22C31.6669 42.556 31.6436 42.8173 31.5969 43.004H27.2289C27.3036 43.6107 27.5229 44.082 27.8869 44.418C28.2509 44.754 28.7082 44.922 29.2589 44.922C29.5576 44.922 29.8329 44.88 30.0849 44.796C30.3462 44.7027 30.6029 44.5767 30.8549 44.418L31.4009 45.426C31.0742 45.6407 30.7102 45.818 30.3089 45.958C29.9076 46.098 29.4876 46.168 29.0489 46.168ZM27.2149 41.912H30.2669C30.2669 41.38 30.1502 40.9647 29.9169 40.666C29.6836 40.358 29.3336 40.204 28.8669 40.204C28.4656 40.204 28.1062 40.3533 27.7889 40.652C27.4809 40.9413 27.2896 41.3613 27.2149 41.912ZM33.2046 46V39.126H34.5346L34.6466 40.05H34.7026C35.0106 39.7513 35.3466 39.4947 35.7106 39.28C36.0746 39.0653 36.49 38.958 36.9566 38.958C37.694 38.958 38.2306 39.196 38.5666 39.672C38.9026 40.148 39.0706 40.82 39.0706 41.688V46H37.4606V41.898C37.4606 41.3287 37.3766 40.9273 37.2086 40.694C37.0406 40.4607 36.7653 40.344 36.3826 40.344C36.084 40.344 35.818 40.4187 35.5846 40.568C35.3606 40.708 35.104 40.918 34.8146 41.198V46H33.2046ZM43.9786 46.168C43.3439 46.168 42.7699 46.028 42.2566 45.748C41.7433 45.4587 41.3373 45.048 41.0386 44.516C40.7399 43.9747 40.5906 43.326 40.5906 42.57C40.5906 41.8233 40.7399 41.1793 41.0386 40.638C41.3466 40.0967 41.7433 39.6813 42.2286 39.392C42.7139 39.1027 43.2226 38.958 43.7546 38.958C44.3799 38.958 44.9026 39.098 45.3226 39.378C45.7426 39.6487 46.0599 40.0313 46.2746 40.526C46.4893 41.0113 46.5966 41.576 46.5966 42.22C46.5966 42.556 46.5733 42.8173 46.5266 43.004H42.1586C42.2333 43.6107 42.4526 44.082 42.8166 44.418C43.1806 44.754 43.6379 44.922 44.1886 44.922C44.4873 44.922 44.7626 44.88 45.0146 44.796C45.2759 44.7027 45.5326 44.5767 45.7846 44.418L46.3306 45.426C46.0039 45.6407 45.6399 45.818 45.2386 45.958C44.8373 46.098 44.4173 46.168 43.9786 46.168ZM42.1446 41.912H45.1966C45.1966 41.38 45.0799 40.9647 44.8466 40.666C44.6133 40.358 44.2633 40.204 43.7966 40.204C43.3953 40.204 43.0359 40.3533 42.7186 40.652C42.4106 40.9413 42.2193 41.3613 42.1446 41.912ZM48.1343 46V39.126H49.4643L49.5763 40.344H49.6323C49.875 39.896 50.169 39.5553 50.5143 39.322C50.8596 39.0793 51.2143 38.958 51.5783 38.958C51.905 38.958 52.1663 39.0047 52.3623 39.098L52.0823 40.498C51.961 40.4607 51.849 40.4327 51.7463 40.414C51.6436 40.3953 51.5176 40.386 51.3683 40.386C51.0976 40.386 50.813 40.4933 50.5143 40.708C50.2156 40.9133 49.959 41.2773 49.7443 41.8V46H48.1343ZM54.6538 46.168C54.0565 46.168 53.5665 45.9813 53.1838 45.608C52.8105 45.2347 52.6238 44.7493 52.6238 44.152C52.6238 43.4147 52.9458 42.8453 53.5898 42.444C54.2338 42.0333 55.2605 41.7533 56.6698 41.604C56.6605 41.24 56.5625 40.9273 56.3758 40.666C56.1985 40.3953 55.8765 40.26 55.4098 40.26C55.0738 40.26 54.7425 40.3253 54.4158 40.456C54.0985 40.5867 53.7858 40.7453 53.4778 40.932L52.8898 39.854C53.2725 39.6113 53.7018 39.4013 54.1778 39.224C54.6632 39.0467 55.1765 38.958 55.7178 38.958C56.5765 38.958 57.2158 39.2147 57.6358 39.728C58.0652 40.232 58.2798 40.9647 58.2798 41.926V46H56.9498L56.8378 45.244H56.7818C56.4738 45.5053 56.1425 45.7247 55.7878 45.902C55.4425 46.0793 55.0645 46.168 54.6538 46.168ZM55.1718 44.908C55.4518 44.908 55.7038 44.8427 55.9278 44.712C56.1612 44.572 56.4085 44.3853 56.6698 44.152V42.612C55.7365 42.7333 55.0878 42.9153 54.7238 43.158C54.3598 43.3913 54.1778 43.6807 54.1778 44.026C54.1778 44.334 54.2712 44.558 54.4578 44.698C54.6445 44.838 54.8825 44.908 55.1718 44.908ZM61.7746 46.168C61.2052 46.168 60.7992 45.9953 60.5566 45.65C60.3232 45.3047 60.2066 44.8333 60.2066 44.236V36.116H61.8166V44.32C61.8166 44.516 61.8539 44.656 61.9286 44.74C62.0032 44.8147 62.0826 44.852 62.1666 44.852C62.2039 44.852 62.2366 44.852 62.2646 44.852C62.3019 44.8427 62.3532 44.8333 62.4186 44.824L62.6286 46.028C62.5352 46.0653 62.4139 46.098 62.2646 46.126C62.1246 46.154 61.9612 46.168 61.7746 46.168ZM67.8601 46L66.0401 36.844H67.7061L68.5041 41.464C68.5788 41.9493 68.6534 42.4393 68.7281 42.934C68.8121 43.4193 68.8868 43.9047 68.9521 44.39H69.0081C69.1108 43.9047 69.2088 43.4193 69.3021 42.934C69.4048 42.4393 69.5074 41.9493 69.6101 41.464L70.7301 36.844H72.1441L73.2641 41.464C73.3668 41.94 73.4694 42.4253 73.5721 42.92C73.6748 43.4053 73.7774 43.8953 73.8801 44.39H73.9361C74.0108 43.8953 74.0854 43.4053 74.1601 42.92C74.2348 42.4347 74.3048 41.9493 74.3701 41.464L75.1681 36.844H76.7221L74.9721 46H72.9561L71.8221 41.184C71.7474 40.8293 71.6728 40.4747 71.5981 40.12C71.5328 39.7653 71.4721 39.4153 71.4161 39.07H71.3601C71.2948 39.4153 71.2248 39.7653 71.1501 40.12C71.0848 40.4747 71.0148 40.8293 70.9401 41.184L69.8341 46H67.8601ZM79.4819 46.168C78.8846 46.168 78.3946 45.9813 78.0119 45.608C77.6386 45.2347 77.4519 44.7493 77.4519 44.152C77.4519 43.4147 77.7739 42.8453 78.4179 42.444C79.0619 42.0333 80.0886 41.7533 81.4979 41.604C81.4886 41.24 81.3906 40.9273 81.2039 40.666C81.0266 40.3953 80.7046 40.26 80.2379 40.26C79.9019 40.26 79.5706 40.3253 79.2439 40.456C78.9266 40.5867 78.6139 40.7453 78.3059 40.932L77.7179 39.854C78.1006 39.6113 78.5299 39.4013 79.0059 39.224C79.4913 39.0467 80.0046 38.958 80.5459 38.958C81.4046 38.958 82.0439 39.2147 82.4639 39.728C82.8933 40.232 83.1079 40.9647 83.1079 41.926V46H81.7779L81.6659 45.244H81.6099C81.3019 45.5053 80.9706 45.7247 80.6159 45.902C80.2706 46.0793 79.8926 46.168 79.4819 46.168ZM79.9999 44.908C80.2799 44.908 80.5319 44.8427 80.7559 44.712C80.9893 44.572 81.2366 44.3853 81.4979 44.152V42.612C80.5646 42.7333 79.9159 42.9153 79.5519 43.158C79.1879 43.3913 79.0059 43.6807 79.0059 44.026C79.0059 44.334 79.0993 44.558 79.2859 44.698C79.4726 44.838 79.7106 44.908 79.9999 44.908ZM86.9527 46.168C86.486 46.168 86.0194 46.0793 85.5527 45.902C85.086 45.7153 84.6847 45.4867 84.3487 45.216L85.1047 44.18C85.4127 44.4133 85.7207 44.6 86.0287 44.74C86.3367 44.88 86.6634 44.95 87.0087 44.95C87.382 44.95 87.6574 44.8707 87.8347 44.712C88.012 44.5533 88.1007 44.3573 88.1007 44.124C88.1007 43.928 88.026 43.7693 87.8767 43.648C87.7367 43.5173 87.5547 43.4053 87.3307 43.312C87.1067 43.2093 86.8734 43.1113 86.6307 43.018C86.332 42.906 86.0334 42.7707 85.7347 42.612C85.4454 42.444 85.2074 42.234 85.0207 41.982C84.834 41.7207 84.7407 41.3987 84.7407 41.016C84.7407 40.4093 84.9647 39.9147 85.4127 39.532C85.8607 39.1493 86.4674 38.958 87.2327 38.958C87.718 38.958 88.152 39.042 88.5347 39.21C88.9174 39.378 89.2487 39.5693 89.5287 39.784L88.7867 40.764C88.544 40.5867 88.2967 40.4467 88.0447 40.344C87.802 40.232 87.5454 40.176 87.2747 40.176C86.9294 40.176 86.6727 40.2507 86.5047 40.4C86.3367 40.54 86.2527 40.7173 86.2527 40.932C86.2527 41.2027 86.3927 41.408 86.6727 41.548C86.9527 41.688 87.2794 41.8233 87.6527 41.954C87.97 42.066 88.278 42.206 88.5767 42.374C88.8754 42.5327 89.1227 42.7427 89.3187 43.004C89.524 43.2653 89.6267 43.6107 89.6267 44.04C89.6267 44.628 89.398 45.132 88.9407 45.552C88.4834 45.9627 87.8207 46.168 86.9527 46.168ZM93.2126 46.168C92.4192 46.168 91.8546 45.9393 91.5186 45.482C91.1919 45.0153 91.0286 44.4133 91.0286 43.676V40.4H90.0486V39.196L91.1126 39.126L91.3086 37.25H92.6526V39.126H94.4026V40.4H92.6526V43.676C92.6526 44.4787 92.9746 44.88 93.6186 44.88C93.7399 44.88 93.8659 44.866 93.9966 44.838C94.1272 44.8007 94.2392 44.7633 94.3326 44.726L94.6126 45.916C94.4259 45.9813 94.2112 46.0373 93.9686 46.084C93.7352 46.14 93.4832 46.168 93.2126 46.168ZM98.5704 46.168C97.9357 46.168 97.3617 46.028 96.8484 45.748C96.3351 45.4587 95.9291 45.048 95.6304 44.516C95.3317 43.9747 95.1824 43.326 95.1824 42.57C95.1824 41.8233 95.3317 41.1793 95.6304 40.638C95.9384 40.0967 96.3351 39.6813 96.8204 39.392C97.3057 39.1027 97.8144 38.958 98.3464 38.958C98.9717 38.958 99.4944 39.098 99.9144 39.378C100.334 39.6487 100.652 40.0313 100.866 40.526C101.081 41.0113 101.188 41.576 101.188 42.22C101.188 42.556 101.165 42.8173 101.118 43.004H96.7504C96.8251 43.6107 97.0444 44.082 97.4084 44.418C97.7724 44.754 98.2297 44.922 98.7804 44.922C99.0791 44.922 99.3544 44.88 99.6064 44.796C99.8677 44.7027 100.124 44.5767 100.376 44.418L100.922 45.426C100.596 45.6407 100.232 45.818 99.8304 45.958C99.4291 46.098 99.0091 46.168 98.5704 46.168ZM96.7364 41.912H99.7884C99.7884 41.38 99.6717 40.9647 99.4384 40.666C99.2051 40.358 98.8551 40.204 98.3884 40.204C97.9871 40.204 97.6277 40.3533 97.3104 40.652C97.0024 40.9413 96.8111 41.3613 96.7364 41.912Z" fill="#999999"/>
    </svg>
    