<svg width="64" height="50" viewBox="0 0 64 50" fill="none" xmlns="http://www.w3.org/2000/svg">
    <path d="M34.782 14.3308V14.3008C34.7519 13.3383 34.2105 12.5263 33.4286 12.0451L33.218 6.30075C33.218 6.1203 33.0376 6 32.8271 6H31.1729C30.9624 6 30.782 6.15038 30.782 6.30075L30.5714 12.0451C29.7895 12.4962 29.2782 13.3083 29.218 14.2707V14.3008V14.391V25.1278V25.1579V25.188C29.218 25.6391 30.4511 26 31.985 26C33.5188 26 34.7519 25.6391 34.7519 25.188V25.1579V25.1278V14.4812C34.7519 14.4511 34.7519 14.4211 34.7519 14.4211C34.782 14.391 34.782 14.3609 34.782 14.3308Z" fill="#999999"/>
    <path d="M21.0634 46.168C20.2421 46.168 19.5048 45.986 18.8514 45.622C18.1981 45.258 17.6848 44.726 17.3114 44.026C16.9381 43.3167 16.7514 42.458 16.7514 41.45C16.7514 40.4513 16.9428 39.5973 17.3254 38.888C17.7081 38.1693 18.2261 37.6233 18.8794 37.25C19.5328 36.8673 20.2654 36.676 21.0774 36.676C21.7308 36.676 22.2814 36.7973 22.7294 37.04C23.1868 37.2733 23.5601 37.5393 23.8494 37.838L22.9814 38.888C22.7481 38.664 22.4868 38.4773 22.1974 38.328C21.9174 38.1693 21.5628 38.09 21.1334 38.09C20.3214 38.09 19.6634 38.3887 19.1594 38.986C18.6648 39.574 18.4174 40.3813 18.4174 41.408C18.4174 42.4533 18.6554 43.2747 19.1314 43.872C19.6074 44.46 20.3028 44.754 21.2174 44.754C21.4788 44.754 21.7261 44.7213 21.9594 44.656C22.1928 44.5813 22.3841 44.4787 22.5334 44.348V42.374H20.7974V41.044H23.9894V45.076C23.6814 45.384 23.2708 45.6453 22.7574 45.86C22.2534 46.0653 21.6888 46.168 21.0634 46.168ZM27.4464 46.168C26.8771 46.168 26.4711 45.9953 26.2284 45.65C25.9951 45.3047 25.8784 44.8333 25.8784 44.236V36.116H27.4884V44.32C27.4884 44.516 27.5258 44.656 27.6004 44.74C27.6751 44.8147 27.7544 44.852 27.8384 44.852C27.8758 44.852 27.9084 44.852 27.9364 44.852C27.9738 44.8427 28.0251 44.8333 28.0904 44.824L28.3004 46.028C28.2071 46.0653 28.0858 46.098 27.9364 46.126C27.7964 46.154 27.6331 46.168 27.4464 46.168ZM31.3452 46.168C30.7479 46.168 30.2579 45.9813 29.8752 45.608C29.5019 45.2347 29.3152 44.7493 29.3152 44.152C29.3152 43.4147 29.6372 42.8453 30.2812 42.444C30.9252 42.0333 31.9519 41.7533 33.3612 41.604C33.3519 41.24 33.2539 40.9273 33.0672 40.666C32.8899 40.3953 32.5679 40.26 32.1012 40.26C31.7652 40.26 31.4339 40.3253 31.1072 40.456C30.7899 40.5867 30.4772 40.7453 30.1692 40.932L29.5812 39.854C29.9639 39.6113 30.3932 39.4013 30.8692 39.224C31.3546 39.0467 31.8679 38.958 32.4092 38.958C33.2679 38.958 33.9072 39.2147 34.3272 39.728C34.7566 40.232 34.9712 40.9647 34.9712 41.926V46H33.6412L33.5292 45.244H33.4732C33.1652 45.5053 32.8339 45.7247 32.4792 45.902C32.1339 46.0793 31.7559 46.168 31.3452 46.168ZM31.8632 44.908C32.1432 44.908 32.3952 44.8427 32.6192 44.712C32.8526 44.572 33.0999 44.3853 33.3612 44.152V42.612C32.4279 42.7333 31.7792 42.9153 31.4152 43.158C31.0512 43.3913 30.8692 43.6807 30.8692 44.026C30.8692 44.334 30.9626 44.558 31.1492 44.698C31.3359 44.838 31.5739 44.908 31.8632 44.908ZM38.816 46.168C38.3493 46.168 37.8826 46.0793 37.416 45.902C36.9493 45.7153 36.548 45.4867 36.212 45.216L36.968 44.18C37.276 44.4133 37.584 44.6 37.892 44.74C38.2 44.88 38.5266 44.95 38.872 44.95C39.2453 44.95 39.5206 44.8707 39.698 44.712C39.8753 44.5533 39.964 44.3573 39.964 44.124C39.964 43.928 39.8893 43.7693 39.74 43.648C39.6 43.5173 39.418 43.4053 39.194 43.312C38.97 43.2093 38.7366 43.1113 38.494 43.018C38.1953 42.906 37.8966 42.7707 37.598 42.612C37.3086 42.444 37.0706 42.234 36.884 41.982C36.6973 41.7207 36.604 41.3987 36.604 41.016C36.604 40.4093 36.828 39.9147 37.276 39.532C37.724 39.1493 38.3306 38.958 39.096 38.958C39.5813 38.958 40.0153 39.042 40.398 39.21C40.7806 39.378 41.112 39.5693 41.392 39.784L40.65 40.764C40.4073 40.5867 40.16 40.4467 39.908 40.344C39.6653 40.232 39.4086 40.176 39.138 40.176C38.7926 40.176 38.536 40.2507 38.368 40.4C38.2 40.54 38.116 40.7173 38.116 40.932C38.116 41.2027 38.256 41.408 38.536 41.548C38.816 41.688 39.1426 41.8233 39.516 41.954C39.8333 42.066 40.1413 42.206 40.44 42.374C40.7386 42.5327 40.986 42.7427 41.182 43.004C41.3873 43.2653 41.49 43.6107 41.49 44.04C41.49 44.628 41.2613 45.132 40.804 45.552C40.3466 45.9627 39.684 46.168 38.816 46.168ZM44.8453 46.168C44.3786 46.168 43.9119 46.0793 43.4453 45.902C42.9786 45.7153 42.5773 45.4867 42.2413 45.216L42.9973 44.18C43.3053 44.4133 43.6133 44.6 43.9213 44.74C44.2293 44.88 44.5559 44.95 44.9013 44.95C45.2746 44.95 45.5499 44.8707 45.7273 44.712C45.9046 44.5533 45.9933 44.3573 45.9933 44.124C45.9933 43.928 45.9186 43.7693 45.7693 43.648C45.6293 43.5173 45.4473 43.4053 45.2233 43.312C44.9993 43.2093 44.7659 43.1113 44.5233 43.018C44.2246 42.906 43.9259 42.7707 43.6273 42.612C43.3379 42.444 43.0999 42.234 42.9133 41.982C42.7266 41.7207 42.6333 41.3987 42.6333 41.016C42.6333 40.4093 42.8573 39.9147 43.3053 39.532C43.7533 39.1493 44.3599 38.958 45.1253 38.958C45.6106 38.958 46.0446 39.042 46.4273 39.21C46.8099 39.378 47.1413 39.5693 47.4213 39.784L46.6793 40.764C46.4366 40.5867 46.1893 40.4467 45.9373 40.344C45.6946 40.232 45.4379 40.176 45.1673 40.176C44.8219 40.176 44.5653 40.2507 44.3973 40.4C44.2293 40.54 44.1453 40.7173 44.1453 40.932C44.1453 41.2027 44.2853 41.408 44.5653 41.548C44.8453 41.688 45.1719 41.8233 45.5453 41.954C45.8626 42.066 46.1706 42.206 46.4693 42.374C46.7679 42.5327 47.0153 42.7427 47.2113 43.004C47.4166 43.2653 47.5193 43.6107 47.5193 44.04C47.5193 44.628 47.2906 45.132 46.8333 45.552C46.3759 45.9627 45.7133 46.168 44.8453 46.168Z" fill="#999999"/>
    </svg>
    