<svg width="135" height="50" viewBox="0 0 135 50" fill="none" xmlns="http://www.w3.org/2000/svg">
    <path d="M67.8808 26H61.0371V7.10308H63.309V6H65.598V7.08686H67.8808V26Z" fill="#999999"/>
    <path d="M73.9629 25.0267H69.1198V11.8152H70.7255V11.0548H72.3497V11.8055H73.9629V25.0267Z" fill="#999999"/>
    <path d="M17.5565 46V36.844H19.1805V40.526H22.8905V36.844H24.5145V46H22.8905V41.94H19.1805V46H17.5565ZM28.3657 46.168C27.7684 46.168 27.2784 45.9813 26.8957 45.608C26.5224 45.2347 26.3357 44.7493 26.3357 44.152C26.3357 43.4147 26.6577 42.8453 27.3017 42.444C27.9457 42.0333 28.9724 41.7533 30.3817 41.604C30.3724 41.24 30.2744 40.9273 30.0877 40.666C29.9104 40.3953 29.5884 40.26 29.1217 40.26C28.7857 40.26 28.4544 40.3253 28.1277 40.456C27.8104 40.5867 27.4977 40.7453 27.1897 40.932L26.6017 39.854C26.9844 39.6113 27.4137 39.4013 27.8897 39.224C28.3751 39.0467 28.8884 38.958 29.4297 38.958C30.2884 38.958 30.9277 39.2147 31.3477 39.728C31.7771 40.232 31.9917 40.9647 31.9917 41.926V46H30.6617L30.5497 45.244H30.4937C30.1857 45.5053 29.8544 45.7247 29.4997 45.902C29.1544 46.0793 28.7764 46.168 28.3657 46.168ZM28.8837 44.908C29.1637 44.908 29.4157 44.8427 29.6397 44.712C29.8731 44.572 30.1204 44.3853 30.3817 44.152V42.612C29.4484 42.7333 28.7997 42.9153 28.4357 43.158C28.0717 43.3913 27.8897 43.6807 27.8897 44.026C27.8897 44.334 27.9831 44.558 28.1697 44.698C28.3564 44.838 28.5944 44.908 28.8837 44.908ZM33.3725 46V45.132L36.6205 40.4H33.7365V39.126H38.6365V39.98L35.4025 44.712H38.7485V46H33.3725ZM41.5454 46.168C40.9481 46.168 40.4581 45.9813 40.0754 45.608C39.7021 45.2347 39.5154 44.7493 39.5154 44.152C39.5154 43.4147 39.8374 42.8453 40.4814 42.444C41.1254 42.0333 42.1521 41.7533 43.5614 41.604C43.5521 41.24 43.4541 40.9273 43.2674 40.666C43.0901 40.3953 42.7681 40.26 42.3014 40.26C41.9654 40.26 41.6341 40.3253 41.3074 40.456C40.9901 40.5867 40.6774 40.7453 40.3694 40.932L39.7814 39.854C40.1641 39.6113 40.5934 39.4013 41.0694 39.224C41.5548 39.0467 42.0681 38.958 42.6094 38.958C43.4681 38.958 44.1074 39.2147 44.5274 39.728C44.9568 40.232 45.1714 40.9647 45.1714 41.926V46H43.8414L43.7294 45.244H43.6734C43.3654 45.5053 43.0341 45.7247 42.6794 45.902C42.3341 46.0793 41.9561 46.168 41.5454 46.168ZM42.0634 44.908C42.3434 44.908 42.5954 44.8427 42.8194 44.712C43.0528 44.572 43.3001 44.3853 43.5614 44.152V42.612C42.6281 42.7333 41.9794 42.9153 41.6154 43.158C41.2514 43.3913 41.0694 43.6807 41.0694 44.026C41.0694 44.334 41.1628 44.558 41.3494 44.698C41.5361 44.838 41.7741 44.908 42.0634 44.908ZM47.0982 46V39.126H48.4282L48.5402 40.344H48.5962C48.8388 39.896 49.1328 39.5553 49.4782 39.322C49.8235 39.0793 50.1782 38.958 50.5422 38.958C50.8688 38.958 51.1302 39.0047 51.3262 39.098L51.0462 40.498C50.9248 40.4607 50.8128 40.4327 50.7102 40.414C50.6075 40.3953 50.4815 40.386 50.3322 40.386C50.0615 40.386 49.7768 40.4933 49.4782 40.708C49.1795 40.9133 48.9228 41.2773 48.7082 41.8V46H47.0982ZM54.5921 46.168C53.7334 46.168 53.0474 45.8507 52.5341 45.216C52.0208 44.5813 51.7641 43.6993 51.7641 42.57C51.7641 41.8233 51.8994 41.1793 52.1701 40.638C52.4501 40.0967 52.8141 39.6813 53.2621 39.392C53.7101 39.1027 54.1814 38.958 54.6761 38.958C55.0681 38.958 55.3994 39.028 55.6701 39.168C55.9501 39.2987 56.2208 39.4807 56.4821 39.714L56.4261 38.608V36.116H58.0361V46H56.7061L56.5941 45.258H56.5381C56.2861 45.51 55.9921 45.7247 55.6561 45.902C55.3201 46.0793 54.9654 46.168 54.5921 46.168ZM54.9841 44.838C55.4974 44.838 55.9781 44.5813 56.4261 44.068V40.862C56.1928 40.6473 55.9594 40.498 55.7261 40.414C55.4928 40.33 55.2594 40.288 55.0261 40.288C54.5874 40.288 54.2094 40.4887 53.8921 40.89C53.5841 41.282 53.4301 41.8373 53.4301 42.556C53.4301 43.2933 53.5654 43.858 53.8361 44.25C54.1068 44.642 54.4894 44.838 54.9841 44.838ZM62.9005 46.168C62.3311 46.168 61.7991 46.028 61.3045 45.748C60.8098 45.4587 60.4085 45.048 60.1005 44.516C59.7925 43.9747 59.6385 43.326 59.6385 42.57C59.6385 41.8047 59.7925 41.156 60.1005 40.624C60.4085 40.0827 60.8098 39.672 61.3045 39.392C61.7991 39.1027 62.3311 38.958 62.9005 38.958C63.4791 38.958 64.0158 39.1027 64.5105 39.392C65.0051 39.672 65.4065 40.0827 65.7145 40.624C66.0225 41.156 66.1765 41.8047 66.1765 42.57C66.1765 43.326 66.0225 43.9747 65.7145 44.516C65.4065 45.048 65.0051 45.4587 64.5105 45.748C64.0158 46.028 63.4791 46.168 62.9005 46.168ZM62.9005 44.852C63.4045 44.852 63.8011 44.642 64.0905 44.222C64.3798 43.802 64.5245 43.2513 64.5245 42.57C64.5245 41.8793 64.3798 41.324 64.0905 40.904C63.8011 40.484 63.4045 40.274 62.9005 40.274C62.3965 40.274 61.9998 40.484 61.7105 40.904C61.4305 41.324 61.2905 41.8793 61.2905 42.57C61.2905 43.2513 61.4305 43.802 61.7105 44.222C61.9998 44.642 62.3965 44.852 62.9005 44.852ZM69.814 46.168C69.0767 46.168 68.54 45.93 68.204 45.454C67.868 44.978 67.7 44.306 67.7 43.438V39.126H69.31V43.228C69.31 43.7973 69.394 44.1987 69.562 44.432C69.73 44.6653 70.0007 44.782 70.374 44.782C70.6727 44.782 70.934 44.7073 71.158 44.558C71.3914 44.4087 71.6387 44.166 71.9 43.83V39.126H73.51V46H72.194L72.068 44.992H72.026C71.7274 45.3467 71.4007 45.6313 71.046 45.846C70.6914 46.0607 70.2807 46.168 69.814 46.168ZM77.4673 46.168C77.0007 46.168 76.534 46.0793 76.0673 45.902C75.6007 45.7153 75.1993 45.4867 74.8633 45.216L75.6193 44.18C75.9273 44.4133 76.2353 44.6 76.5433 44.74C76.8513 44.88 77.178 44.95 77.5233 44.95C77.8967 44.95 78.172 44.8707 78.3493 44.712C78.5267 44.5533 78.6153 44.3573 78.6153 44.124C78.6153 43.928 78.5407 43.7693 78.3913 43.648C78.2513 43.5173 78.0693 43.4053 77.8453 43.312C77.6213 43.2093 77.388 43.1113 77.1453 43.018C76.8467 42.906 76.548 42.7707 76.2493 42.612C75.96 42.444 75.722 42.234 75.5353 41.982C75.3487 41.7207 75.2553 41.3987 75.2553 41.016C75.2553 40.4093 75.4793 39.9147 75.9273 39.532C76.3753 39.1493 76.982 38.958 77.7473 38.958C78.2327 38.958 78.6667 39.042 79.0493 39.21C79.432 39.378 79.7633 39.5693 80.0433 39.784L79.3013 40.764C79.0587 40.5867 78.8113 40.4467 78.5593 40.344C78.3167 40.232 78.06 40.176 77.7893 40.176C77.444 40.176 77.1873 40.2507 77.0193 40.4C76.8513 40.54 76.7673 40.7173 76.7673 40.932C76.7673 41.2027 76.9073 41.408 77.1873 41.548C77.4673 41.688 77.794 41.8233 78.1673 41.954C78.4847 42.066 78.7927 42.206 79.0913 42.374C79.39 42.5327 79.6373 42.7427 79.8333 43.004C80.0387 43.2653 80.1413 43.6107 80.1413 44.04C80.1413 44.628 79.9127 45.132 79.4553 45.552C78.998 45.9627 78.3353 46.168 77.4673 46.168ZM85.5154 46L83.6954 39.126H85.3194L86.1454 42.696C86.22 43.0227 86.2807 43.3493 86.3274 43.676C86.3834 44.0027 86.444 44.334 86.5094 44.67H86.5654C86.6307 44.334 86.696 44.0027 86.7614 43.676C86.836 43.34 86.9154 43.0133 86.9994 42.696L87.8954 39.126H89.3654L90.2754 42.696C90.3594 43.0227 90.4387 43.3493 90.5134 43.676C90.588 44.0027 90.6627 44.334 90.7374 44.67H90.7934C90.8587 44.334 90.9194 44.0027 90.9754 43.676C91.0314 43.3493 91.092 43.0227 91.1574 42.696L91.9834 39.126H93.4954L91.7454 46H89.8274L89.0294 42.794C88.9547 42.4673 88.8847 42.1453 88.8194 41.828C88.754 41.5013 88.684 41.156 88.6094 40.792H88.5534C88.488 41.156 88.4227 41.5013 88.3574 41.828C88.292 42.1547 88.222 42.4813 88.1474 42.808L87.3634 46H85.5154ZM96.3833 46.168C95.786 46.168 95.296 45.9813 94.9133 45.608C94.54 45.2347 94.3533 44.7493 94.3533 44.152C94.3533 43.4147 94.6753 42.8453 95.3193 42.444C95.9633 42.0333 96.99 41.7533 98.3993 41.604C98.39 41.24 98.292 40.9273 98.1053 40.666C97.928 40.3953 97.606 40.26 97.1393 40.26C96.8033 40.26 96.472 40.3253 96.1453 40.456C95.828 40.5867 95.5153 40.7453 95.2073 40.932L94.6193 39.854C95.002 39.6113 95.4313 39.4013 95.9073 39.224C96.3926 39.0467 96.906 38.958 97.4473 38.958C98.306 38.958 98.9453 39.2147 99.3653 39.728C99.7946 40.232 100.009 40.9647 100.009 41.926V46H98.6793L98.5673 45.244H98.5113C98.2033 45.5053 97.872 45.7247 97.5173 45.902C97.172 46.0793 96.794 46.168 96.3833 46.168ZM96.9013 44.908C97.1813 44.908 97.4333 44.8427 97.6573 44.712C97.8906 44.572 98.138 44.3853 98.3993 44.152V42.612C97.466 42.7333 96.8173 42.9153 96.4533 43.158C96.0893 43.3913 95.9073 43.6807 95.9073 44.026C95.9073 44.334 96.0006 44.558 96.1873 44.698C96.374 44.838 96.612 44.908 96.9013 44.908ZM103.854 46.168C103.387 46.168 102.921 46.0793 102.454 45.902C101.987 45.7153 101.586 45.4867 101.25 45.216L102.006 44.18C102.314 44.4133 102.622 44.6 102.93 44.74C103.238 44.88 103.565 44.95 103.91 44.95C104.283 44.95 104.559 44.8707 104.736 44.712C104.913 44.5533 105.002 44.3573 105.002 44.124C105.002 43.928 104.927 43.7693 104.778 43.648C104.638 43.5173 104.456 43.4053 104.232 43.312C104.008 43.2093 103.775 43.1113 103.532 43.018C103.233 42.906 102.935 42.7707 102.636 42.612C102.347 42.444 102.109 42.234 101.922 41.982C101.735 41.7207 101.642 41.3987 101.642 41.016C101.642 40.4093 101.866 39.9147 102.314 39.532C102.762 39.1493 103.369 38.958 104.134 38.958C104.619 38.958 105.053 39.042 105.436 39.21C105.819 39.378 106.15 39.5693 106.43 39.784L105.688 40.764C105.445 40.5867 105.198 40.4467 104.946 40.344C104.703 40.232 104.447 40.176 104.176 40.176C103.831 40.176 103.574 40.2507 103.406 40.4C103.238 40.54 103.154 40.7173 103.154 40.932C103.154 41.2027 103.294 41.408 103.574 41.548C103.854 41.688 104.181 41.8233 104.554 41.954C104.871 42.066 105.179 42.206 105.478 42.374C105.777 42.5327 106.024 42.7427 106.22 43.004C106.425 43.2653 106.528 43.6107 106.528 44.04C106.528 44.628 106.299 45.132 105.842 45.552C105.385 45.9627 104.722 46.168 103.854 46.168ZM110.114 46.168C109.321 46.168 108.756 45.9393 108.42 45.482C108.093 45.0153 107.93 44.4133 107.93 43.676V40.4H106.95V39.196L108.014 39.126L108.21 37.25H109.554V39.126H111.304V40.4H109.554V43.676C109.554 44.4787 109.876 44.88 110.52 44.88C110.641 44.88 110.767 44.866 110.898 44.838C111.029 44.8007 111.141 44.7633 111.234 44.726L111.514 45.916C111.327 45.9813 111.113 46.0373 110.87 46.084C110.637 46.14 110.385 46.168 110.114 46.168ZM115.472 46.168C114.837 46.168 114.263 46.028 113.75 45.748C113.236 45.4587 112.83 45.048 112.532 44.516C112.233 43.9747 112.084 43.326 112.084 42.57C112.084 41.8233 112.233 41.1793 112.532 40.638C112.84 40.0967 113.236 39.6813 113.722 39.392C114.207 39.1027 114.716 38.958 115.248 38.958C115.873 38.958 116.396 39.098 116.816 39.378C117.236 39.6487 117.553 40.0313 117.768 40.526C117.982 41.0113 118.09 41.576 118.09 42.22C118.09 42.556 118.066 42.8173 118.02 43.004H113.652C113.726 43.6107 113.946 44.082 114.31 44.418C114.674 44.754 115.131 44.922 115.682 44.922C115.98 44.922 116.256 44.88 116.508 44.796C116.769 44.7027 117.026 44.5767 117.278 44.418L117.824 45.426C117.497 45.6407 117.133 45.818 116.732 45.958C116.33 46.098 115.91 46.168 115.472 46.168ZM113.638 41.912H116.69C116.69 41.38 116.573 40.9647 116.34 40.666C116.106 40.358 115.756 40.204 115.29 40.204C114.888 40.204 114.529 40.3533 114.212 40.652C113.904 40.9413 113.712 41.3613 113.638 41.912Z" fill="#999999"/>
    </svg>
    