<svg width="66" height="50" viewBox="0 0 66 50" fill="none" xmlns="http://www.w3.org/2000/svg">
    <path d="M38 7.04545C38 7 38 6.95454 38 6.90909C38 6.40909 37.5909 6 37.0909 6H28.9091C28.4091 6 28 6.40909 28 6.90909C28 6.95454 28 7 28 7.04545C27.7273 7.18182 27.5454 7.5 27.5454 7.81818V24.1818C27.5454 24.5 27.7273 24.8182 28 24.9545C28 25 28 25.0455 28 25.0909C28 25.5909 28.4091 26 28.9091 26H37.0909C37.5909 26 38 25.5909 38 25.0909C38 25.0455 38 25 38 24.9545C38.2727 24.8182 38.4546 24.5 38.4546 24.1818V7.81818C38.4546 7.5 38.2727 7.18182 38 7.04545ZM30.2727 23.7273C30.2727 24 30.0909 24.1818 29.8182 24.1818C29.5454 24.1818 29.3636 24 29.3636 23.7273V8.27273C29.3636 8 29.5454 7.81818 29.8182 7.81818C30.0909 7.81818 30.2727 8 30.2727 8.27273V23.7273Z" fill="#999999"/>
    <path d="M17.578 46V36.844H19.412L21.036 41.324C21.1387 41.6133 21.2367 41.912 21.33 42.22C21.4327 42.5187 21.5307 42.8173 21.624 43.116H21.68C21.7827 42.8173 21.8807 42.5187 21.974 42.22C22.0673 41.912 22.1607 41.6133 22.254 41.324L23.836 36.844H25.684V46H24.186V41.814C24.186 41.5247 24.1953 41.212 24.214 40.876C24.242 40.5307 24.27 40.1853 24.298 39.84C24.3353 39.4947 24.368 39.182 24.396 38.902H24.34L23.598 41.03L22.1 45.146H21.134L19.622 41.03L18.894 38.902H18.838C18.866 39.182 18.894 39.4947 18.922 39.84C18.9593 40.1853 18.9873 40.5307 19.006 40.876C19.034 41.212 19.048 41.5247 19.048 41.814V46H17.578ZM30.8097 46.168C30.175 46.168 29.601 46.028 29.0877 45.748C28.5743 45.4587 28.1683 45.048 27.8697 44.516C27.571 43.9747 27.4217 43.326 27.4217 42.57C27.4217 41.8233 27.571 41.1793 27.8697 40.638C28.1777 40.0967 28.5743 39.6813 29.0597 39.392C29.545 39.1027 30.0537 38.958 30.5857 38.958C31.211 38.958 31.7337 39.098 32.1537 39.378C32.5737 39.6487 32.891 40.0313 33.1057 40.526C33.3203 41.0113 33.4277 41.576 33.4277 42.22C33.4277 42.556 33.4043 42.8173 33.3577 43.004H28.9897C29.0643 43.6107 29.2837 44.082 29.6477 44.418C30.0117 44.754 30.469 44.922 31.0197 44.922C31.3183 44.922 31.5937 44.88 31.8457 44.796C32.107 44.7027 32.3637 44.5767 32.6157 44.418L33.1617 45.426C32.835 45.6407 32.471 45.818 32.0697 45.958C31.6683 46.098 31.2483 46.168 30.8097 46.168ZM28.9757 41.912H32.0277C32.0277 41.38 31.911 40.9647 31.6777 40.666C31.4443 40.358 31.0943 40.204 30.6277 40.204C30.2263 40.204 29.867 40.3533 29.5497 40.652C29.2417 40.9413 29.0503 41.3613 28.9757 41.912ZM37.2506 46.168C36.4573 46.168 35.8926 45.9393 35.5566 45.482C35.23 45.0153 35.0666 44.4133 35.0666 43.676V40.4H34.0866V39.196L35.1506 39.126L35.3466 37.25H36.6906V39.126H38.4406V40.4H36.6906V43.676C36.6906 44.4787 37.0126 44.88 37.6566 44.88C37.778 44.88 37.904 44.866 38.0346 44.838C38.1653 44.8007 38.2773 44.7633 38.3706 44.726L38.6506 45.916C38.464 45.9813 38.2493 46.0373 38.0066 46.084C37.7733 46.14 37.5213 46.168 37.2506 46.168ZM41.2525 46.168C40.6551 46.168 40.1651 45.9813 39.7825 45.608C39.4091 45.2347 39.2225 44.7493 39.2225 44.152C39.2225 43.4147 39.5445 42.8453 40.1885 42.444C40.8325 42.0333 41.8591 41.7533 43.2685 41.604C43.2591 41.24 43.1611 40.9273 42.9745 40.666C42.7971 40.3953 42.4751 40.26 42.0085 40.26C41.6725 40.26 41.3411 40.3253 41.0145 40.456C40.6971 40.5867 40.3845 40.7453 40.0765 40.932L39.4885 39.854C39.8711 39.6113 40.3005 39.4013 40.7765 39.224C41.2618 39.0467 41.7751 38.958 42.3165 38.958C43.1751 38.958 43.8145 39.2147 44.2345 39.728C44.6638 40.232 44.8785 40.9647 44.8785 41.926V46H43.5485L43.4365 45.244H43.3805C43.0725 45.5053 42.7411 45.7247 42.3865 45.902C42.0411 46.0793 41.6631 46.168 41.2525 46.168ZM41.7705 44.908C42.0505 44.908 42.3025 44.8427 42.5265 44.712C42.7598 44.572 43.0071 44.3853 43.2685 44.152V42.612C42.3351 42.7333 41.6865 42.9153 41.3225 43.158C40.9585 43.3913 40.7765 43.6807 40.7765 44.026C40.7765 44.334 40.8698 44.558 41.0565 44.698C41.2431 44.838 41.4811 44.908 41.7705 44.908ZM48.3732 46.168C47.8039 46.168 47.3979 45.9953 47.1552 45.65C46.9219 45.3047 46.8052 44.8333 46.8052 44.236V36.116H48.4152V44.32C48.4152 44.516 48.4525 44.656 48.5272 44.74C48.6019 44.8147 48.6812 44.852 48.7652 44.852C48.8025 44.852 48.8352 44.852 48.8632 44.852C48.9005 44.8427 48.9519 44.8333 49.0172 44.824L49.2272 46.028C49.1339 46.0653 49.0125 46.098 48.8632 46.126C48.7232 46.154 48.5599 46.168 48.3732 46.168Z" fill="#999999"/>
    </svg>
    