<svg width="68" height="50" viewBox="0 0 68 50" fill="none" xmlns="http://www.w3.org/2000/svg">
    <path d="M28.4778 11.5798C28.3612 10.8483 28.1864 10.0151 27.6812 9.44617C27.4481 9.18201 27.0789 8.93817 26.7292 8.93817C26.3017 8.91785 26.0103 9.26329 25.816 9.62905C25.4663 10.259 25.3303 11.0108 25.2137 11.7017C25.1166 12.3519 25.0389 13.0022 25 13.6524C25.0194 13.6524 25.0194 13.6524 25.0389 13.6524C25.816 13.5102 26.5932 13.3679 27.3703 13.246C27.7784 13.1647 28.1669 13.1038 28.5749 13.0225C28.5944 12.5348 28.5555 12.0471 28.4778 11.5798Z" fill="#999999"/>
    <path d="M43.3993 15.6031C42.1364 16.0095 40.8735 16.3956 39.6107 16.802C38.6586 17.1068 37.7066 17.3913 36.774 17.6961C36.5992 16.802 36.5992 15.8673 36.6769 14.9529C36.7352 14.1604 36.8517 13.3882 36.9295 12.5958C37.0266 11.661 37.0655 10.706 36.8517 9.79159C36.6769 8.99911 36.2494 8.30823 35.4723 8.06439C35.0837 7.94247 34.6563 8.02375 34.2677 8.06439C33.8014 8.10503 33.3156 8.14567 32.8493 8.18631C31.8973 8.26759 30.9647 8.36919 30.0127 8.45047C29.0607 8.53175 28.1281 8.63335 27.176 8.71463C27.0983 8.71463 27.0206 8.73495 26.9235 8.73495C27.2149 8.79591 27.4869 8.95847 27.7006 9.16167C28.2446 9.68999 28.4584 10.5231 28.5944 11.2546C28.7887 12.3316 28.8081 13.4289 28.7692 14.5262C28.7498 14.8919 28.7304 15.278 28.7109 15.6437C28.7109 15.786 28.6915 15.9485 28.6915 16.0908C28.6915 16.1721 28.7304 16.3753 28.6332 16.3753C28.7109 16.3549 28.6915 16.4362 28.6915 16.4972C28.6915 16.5785 28.6915 16.6597 28.6915 16.741C28.6915 16.9442 28.6915 17.1677 28.6915 17.3709C28.6915 17.8383 28.7109 18.3057 28.7498 18.773C28.8275 19.6265 28.9635 20.4799 29.2549 21.2724C29.527 22.0445 29.9544 22.6948 30.5761 23.2028C31.1007 23.6498 31.8779 24.2188 32.5773 23.914C33.0048 23.7311 33.2962 23.2841 33.5294 22.8777C33.7819 22.39 33.9762 21.8413 34.1511 21.313C34.4814 20.2767 34.7145 19.2201 34.9283 18.1634C34.9865 18.2041 35.0254 18.2447 35.0837 18.3057C35.1225 18.326 35.006 18.6917 35.006 18.7324C34.9283 19.0981 34.8505 19.4639 34.7534 19.8093C34.6174 20.3783 34.462 20.9676 34.2871 21.5162C34.0928 22.1258 33.8791 22.7354 33.5488 23.2637C33.3934 23.5076 33.2185 23.7514 32.9854 23.9343C34.6368 23.2434 36.2689 22.5525 37.9203 21.8617C38.7946 21.4959 39.6884 21.1301 40.5627 20.7441C41.3204 20.4189 41.8061 19.7281 42.1753 18.9965C42.4667 18.4479 42.6999 17.8586 42.9136 17.2693C43.0302 16.9645 43.1273 16.6597 43.2245 16.3549C43.2828 16.1924 43.3216 16.0501 43.3799 15.8876C43.4188 15.8063 43.4382 15.7047 43.4576 15.6234C43.477 15.6234 43.4188 15.6031 43.3993 15.6031Z" fill="#999999"/>
    <path d="M17.6347 46V36.844H20.5187C21.2 36.844 21.8067 36.9327 22.3387 37.11C22.8707 37.2873 23.2907 37.5813 23.5987 37.992C23.9067 38.4027 24.0607 38.9627 24.0607 39.672C24.0607 40.344 23.9067 40.8993 23.5987 41.338C23.2907 41.7767 22.8753 42.1033 22.3527 42.318C21.83 42.5327 21.2373 42.64 20.5747 42.64H19.2587V46H17.6347ZM19.2587 41.338H20.4487C21.7927 41.338 22.4647 40.7827 22.4647 39.672C22.4647 39.0933 22.2873 38.6967 21.9327 38.482C21.5873 38.258 21.074 38.146 20.3927 38.146H19.2587V41.338ZM26.7759 46.168C26.1786 46.168 25.6886 45.9813 25.3059 45.608C24.9326 45.2347 24.7459 44.7493 24.7459 44.152C24.7459 43.4147 25.0679 42.8453 25.7119 42.444C26.3559 42.0333 27.3826 41.7533 28.7919 41.604C28.7826 41.24 28.6846 40.9273 28.4979 40.666C28.3206 40.3953 27.9986 40.26 27.5319 40.26C27.1959 40.26 26.8646 40.3253 26.5379 40.456C26.2206 40.5867 25.9079 40.7453 25.5999 40.932L25.0119 39.854C25.3946 39.6113 25.8239 39.4013 26.2999 39.224C26.7852 39.0467 27.2986 38.958 27.8399 38.958C28.6986 38.958 29.3379 39.2147 29.7579 39.728C30.1872 40.232 30.4019 40.9647 30.4019 41.926V46H29.0719L28.9599 45.244H28.9039C28.5959 45.5053 28.2646 45.7247 27.9099 45.902C27.5646 46.0793 27.1866 46.168 26.7759 46.168ZM27.2939 44.908C27.5739 44.908 27.8259 44.8427 28.0499 44.712C28.2832 44.572 28.5306 44.3853 28.7919 44.152V42.612C27.8586 42.7333 27.2099 42.9153 26.8459 43.158C26.4819 43.3913 26.2999 43.6807 26.2999 44.026C26.2999 44.334 26.3932 44.558 26.5799 44.698C26.7666 44.838 27.0046 44.908 27.2939 44.908ZM32.3286 48.716V39.126H33.6586L33.7706 39.854H33.8266C34.116 39.6113 34.438 39.4013 34.7926 39.224C35.1566 39.0467 35.5253 38.958 35.8986 38.958C36.7573 38.958 37.42 39.2753 37.8866 39.91C38.3626 40.5447 38.6006 41.394 38.6006 42.458C38.6006 43.242 38.4606 43.914 38.1806 44.474C37.9006 45.0247 37.5366 45.4447 37.0886 45.734C36.65 46.0233 36.174 46.168 35.6606 46.168C35.362 46.168 35.0633 46.1027 34.7646 45.972C34.466 45.832 34.1766 45.6453 33.8966 45.412L33.9386 46.56V48.716H32.3286ZM35.3246 44.838C35.782 44.838 36.1646 44.6373 36.4726 44.236C36.7806 43.8347 36.9346 43.2467 36.9346 42.472C36.9346 41.7813 36.818 41.2447 36.5846 40.862C36.3513 40.4793 35.9733 40.288 35.4506 40.288C34.9653 40.288 34.4613 40.5447 33.9386 41.058V44.264C34.1906 44.4693 34.4333 44.6187 34.6666 44.712C34.9 44.796 35.1193 44.838 35.3246 44.838ZM43.171 46.168C42.5363 46.168 41.9623 46.028 41.449 45.748C40.9357 45.4587 40.5297 45.048 40.231 44.516C39.9323 43.9747 39.783 43.326 39.783 42.57C39.783 41.8233 39.9323 41.1793 40.231 40.638C40.539 40.0967 40.9357 39.6813 41.421 39.392C41.9063 39.1027 42.415 38.958 42.947 38.958C43.5723 38.958 44.095 39.098 44.515 39.378C44.935 39.6487 45.2523 40.0313 45.467 40.526C45.6817 41.0113 45.789 41.576 45.789 42.22C45.789 42.556 45.7657 42.8173 45.719 43.004H41.351C41.4257 43.6107 41.645 44.082 42.009 44.418C42.373 44.754 42.8303 44.922 43.381 44.922C43.6797 44.922 43.955 44.88 44.207 44.796C44.4683 44.7027 44.725 44.5767 44.977 44.418L45.523 45.426C45.1963 45.6407 44.8323 45.818 44.431 45.958C44.0297 46.098 43.6097 46.168 43.171 46.168ZM41.337 41.912H44.389C44.389 41.38 44.2723 40.9647 44.039 40.666C43.8057 40.358 43.4557 40.204 42.989 40.204C42.5877 40.204 42.2283 40.3533 41.911 40.652C41.603 40.9413 41.4117 41.3613 41.337 41.912ZM47.3267 46V39.126H48.6567L48.7687 40.344H48.8247C49.0674 39.896 49.3614 39.5553 49.7067 39.322C50.052 39.0793 50.4067 38.958 50.7707 38.958C51.0974 38.958 51.3587 39.0047 51.5547 39.098L51.2747 40.498C51.1534 40.4607 51.0414 40.4327 50.9387 40.414C50.836 40.3953 50.71 40.386 50.5607 40.386C50.29 40.386 50.0054 40.4933 49.7067 40.708C49.408 40.9133 49.1514 41.2773 48.9367 41.8V46H47.3267Z" fill="#999999"/>
    </svg>
    