<svg xmlns="http://www.w3.org/2000/svg" width="73" height="51" fill="none"><path fill="#999" d="M40.02 21.323c0 .37-.318.675-.704.675h-5.632c-.386 0-.704-.305-.704-.675v-2.264c0-.37.318-.675.704-.675h5.632c.386 0 .704.305.704.675v2.264ZM40.02 25.35c0 .37-.318.674-.704.674h-5.632c-.386 0-.704-.305-.704-.675v-2.263c0-.37.318-.675.704-.675h5.632c.386 0 .704.305.704.675v2.264ZM40.02 17.318c0 .37-.318.675-.704.675h-5.632c-.386 0-.704-.305-.704-.675v-2.264c0-.37.318-.674.704-.674h5.632c.386 0 .704.304.704.674v2.264ZM37.59 8.72v-.783h-2.18v.784c-1.408.435-2.43 1.72-2.43 3.2v1.37c0 .37.318.675.704.675h5.632c.386 0 .704-.305.704-.675v-1.37c0-1.503-1.022-2.765-2.43-3.2ZM38.09 7.328a.2.2 0 0 1-.205.196h-2.77a.2.2 0 0 1-.205-.196V6.196A.2.2 0 0 1 35.115 6h2.793c.091 0 .182.087.182.196v1.132ZM17.605 46.024v-9.156h2.884c.682 0 1.288.089 1.82.266.532.178.952.472 1.26.882.308.41.462.97.462 1.68 0 .672-.154 1.228-.462 1.666a2.77 2.77 0 0 1-1.246.98c-.522.215-1.115.322-1.778.322H19.23v3.36h-1.624Zm1.624-4.662h1.19c1.344 0 2.016-.555 2.016-1.666 0-.578-.177-.975-.532-1.19-.345-.224-.858-.336-1.54-.336H19.23v3.192Zm7.953 4.83c-.57 0-.976-.172-1.218-.518-.233-.345-.35-.816-.35-1.414v-8.12h1.61v8.204c0 .196.037.336.112.42a.334.334 0 0 0 .238.112h.098c.037-.01.088-.018.154-.028l.21 1.204a2.523 2.523 0 0 1-.854.14Zm3.899 0c-.598 0-1.088-.186-1.47-.56-.374-.373-.56-.858-.56-1.456 0-.737.322-1.306.966-1.708.644-.41 1.67-.69 3.08-.84a1.648 1.648 0 0 0-.294-.938c-.178-.27-.5-.406-.966-.406-.336 0-.668.066-.994.196-.318.13-.63.29-.938.476l-.588-1.078a6.893 6.893 0 0 1 1.288-.63 4.452 4.452 0 0 1 1.54-.266c.858 0 1.498.257 1.918.77.429.504.644 1.237.644 2.198v4.074h-1.33l-.112-.756h-.056a4.96 4.96 0 0 1-.994.658 2.445 2.445 0 0 1-1.134.266Zm.518-1.26c.28 0 .532-.065.756-.196.233-.14.48-.326.742-.56v-1.54c-.934.122-1.582.304-1.946.546-.364.234-.546.523-.546.868 0 .308.093.532.28.672.186.14.424.21.714.21Zm6.952 1.26c-.466 0-.933-.088-1.4-.266a4.666 4.666 0 0 1-1.204-.686l.756-1.036c.308.234.616.42.924.56.308.14.635.21.98.21.374 0 .649-.08.826-.238a.757.757 0 0 0 .266-.588.584.584 0 0 0-.224-.476 1.817 1.817 0 0 0-.546-.336c-.224-.102-.457-.2-.7-.294a7.597 7.597 0 0 1-.896-.406 2.333 2.333 0 0 1-.714-.63c-.186-.261-.28-.583-.28-.966 0-.606.224-1.101.672-1.484.448-.382 1.055-.574 1.82-.574.486 0 .92.084 1.302.252.383.168.714.36.994.574l-.742.98a3.495 3.495 0 0 0-.742-.42 1.815 1.815 0 0 0-.77-.168c-.345 0-.602.075-.77.224a.663.663 0 0 0-.252.532c0 .27.14.476.42.616.28.14.607.276.98.406.318.112.626.252.924.42.299.159.546.369.742.63.206.262.308.607.308 1.036 0 .588-.228 1.092-.686 1.512-.457.41-1.12.616-1.988.616Zm6.26 0c-.793 0-1.358-.228-1.694-.686-.326-.466-.49-1.068-.49-1.806v-3.276h-.98V39.22l1.064-.07.196-1.876h1.344v1.876h1.75v1.274h-1.75V43.7c0 .803.322 1.204.966 1.204.122 0 .248-.014.378-.042a3.49 3.49 0 0 0 .336-.112l.28 1.19a4.56 4.56 0 0 1-.644.168 3.234 3.234 0 0 1-.756.084Zm2.637-.168V39.15h1.61v6.874h-1.61Zm.812-8.078c-.29 0-.523-.084-.7-.252-.178-.168-.266-.392-.266-.672 0-.27.088-.49.266-.658.177-.168.41-.252.7-.252s.522.084.7.252a.865.865 0 0 1 .266.658c0 .28-.089.504-.266.672-.178.168-.41.252-.7.252Zm5.722 8.246c-.626 0-1.19-.14-1.694-.42-.495-.29-.891-.7-1.19-1.232-.29-.541-.434-1.19-.434-1.946 0-.765.158-1.414.476-1.946a3.195 3.195 0 0 1 1.26-1.232 3.521 3.521 0 0 1 1.708-.434c.439 0 .821.075 1.148.224.327.15.616.332.868.546l-.784 1.05a2.143 2.143 0 0 0-.546-.364 1.328 1.328 0 0 0-.602-.14c-.55 0-1.004.21-1.358.63-.346.42-.518.976-.518 1.666 0 .682.168 1.232.504 1.652.345.42.788.63 1.33.63.27 0 .523-.056.756-.168.242-.121.462-.261.658-.42l.658 1.064c-.318.28-.672.49-1.064.63s-.784.21-1.176.21Z"/></svg>