<svg width="44" height="44" viewBox="0 0 44 44" fill="none" xmlns="http://www.w3.org/2000/svg">
    <rect x="0.5" y="0.5" width="43" height="43" rx="21.5" fill="white"/>
    <rect x="0.5" y="0.5" width="43" height="43" rx="21.5" stroke="#658E9C"/>
    <path d="M36.9537 10.9863C36.9395 10.7416 36.8358 10.5107 36.6626 10.3375C36.4893 10.1642 36.2584 10.0606 36.0137 10.0463C29.5437 9.67127 24.3487 11.6388 22.1162 15.3238C20.6412 17.76 20.6437 20.7188 22.0962 23.5413C21.2695 24.5255 20.6653 25.6768 20.325 26.9163L18.2912 24.875C19.2687 22.8338 19.2312 20.7063 18.1662 18.9388C16.5162 16.215 12.7075 14.755 7.97875 15.0325C7.7341 15.0468 7.50322 15.1504 7.32994 15.3237C7.15666 15.497 7.05303 15.7279 7.03875 15.9725C6.76 20.7013 8.22125 24.51 10.945 26.16C11.8438 26.7092 12.8767 26.9998 13.93 27C14.9524 26.9874 15.9588 26.7452 16.875 26.2913L20 29.4163V33C20 33.2652 20.1054 33.5196 20.2929 33.7071C20.4804 33.8947 20.7348 34 21 34C21.2652 34 21.5196 33.8947 21.7071 33.7071C21.8946 33.5196 22 33.2652 22 33V29.3138C21.9955 27.7229 22.5369 26.1786 23.5337 24.9388C24.8199 25.6109 26.2464 25.9706 27.6975 25.9888C29.1005 25.9933 30.4774 25.61 31.6762 24.8813C35.3612 22.6513 37.3337 17.4563 36.9537 10.9863ZM11.9762 24.45C10.0587 23.2888 8.97375 20.54 9 17C12.54 16.97 15.2887 18.0588 16.45 19.9763C17.0562 20.9763 17.155 22.1425 16.7575 23.3438L13.7062 20.2925C13.5172 20.1129 13.2654 20.0142 13.0047 20.0176C12.7439 20.0209 12.4948 20.126 12.3104 20.3104C12.126 20.4948 12.0209 20.7439 12.0176 21.0047C12.0142 21.2655 12.1129 21.5172 12.2925 21.7063L15.3437 24.7575C14.1425 25.155 12.9775 25.0563 11.9762 24.45ZM30.64 23.1725C28.965 24.1863 26.9962 24.2638 24.9962 23.4225L31.7075 16.71C31.8871 16.521 31.9858 16.2692 31.9824 16.0084C31.9791 15.7477 31.874 15.4985 31.6896 15.3141C31.5052 15.1297 31.2561 15.0247 30.9953 15.0213C30.7346 15.018 30.4828 15.1166 30.2937 15.2963L23.5812 22C22.7362 20 22.8125 18.03 23.8312 16.3563C25.5737 13.4813 29.7062 11.8788 34.9975 12.0025C35.1175 17.2925 33.5175 21.43 30.64 23.1725Z" fill="#658E9C"/>
    </svg>
    
    