<svg width="78" height="50" viewBox="0 0 78 50" fill="none" xmlns="http://www.w3.org/2000/svg">
    <path d="M39.0034 6.62869C38.6841 6.67272 38.3395 6.75932 38.092 6.86059C37.9358 6.9237 37.9049 6.93104 37.6841 6.96773C36.594 7.14386 35.8457 7.73241 35.4336 8.7422C35.2634 9.15609 35.1832 9.47752 35.0032 10.4477C34.9891 10.5181 34.9849 10.5255 34.9511 10.5255C34.833 10.524 34.0706 10.4506 34.0636 10.4389C34.0594 10.4315 33.7134 10.8205 33.2956 11.3019L32.5361 12.1781L32.5459 12.3983C32.6008 13.6311 32.5951 14.8273 32.529 15.9854C32.394 18.344 32.0578 20.3944 31.3419 23.2212C31.2913 23.4178 31.2533 23.5822 31.2547 23.5852C31.2617 23.5925 32.0677 23.9345 33.2534 24.435C33.4545 24.5201 33.6261 24.5979 33.6332 24.6067C33.6487 24.6258 33.7316 24.6493 34.02 24.7168C36.5687 25.3141 38.7179 25.4976 41.2567 25.3347C41.9572 25.2892 42.313 25.2569 43.9503 25.094C45.0811 24.981 45.738 24.9267 46.4047 24.8929C46.5904 24.8841 46.7437 24.8753 46.7451 24.8738C46.7535 24.8665 46.5369 23.7231 46.347 22.7662C46.1262 21.661 46.0235 21.137 45.942 20.6894C45.4567 18.0357 45.2724 16.0852 45.2724 13.571C45.2724 12.526 45.302 11.5587 45.3639 10.5989C45.3737 10.433 45.3793 10.295 45.3765 10.2906C45.3723 10.2877 45.0516 10.3097 44.6634 10.3391C43.7843 10.408 42.8925 10.4682 42.8855 10.4609C42.8827 10.458 42.8138 10.2349 42.7336 9.96627C42.4242 8.92566 42.2188 8.4149 41.9206 7.94963C41.6688 7.55482 41.3411 7.22605 40.9853 7.01177C40.7307 6.85766 40.365 6.72556 40.026 6.66539C39.6983 6.60668 39.2777 6.592 39.0034 6.62869ZM40.4283 7.69865C41.0078 7.93789 41.3749 8.43985 41.6013 9.30286C41.659 9.52302 41.8587 10.5108 41.8475 10.5225C41.8447 10.5255 41.7898 10.5313 41.7251 10.5357L41.607 10.5445L41.5676 10.4066C41.479 10.0984 41.2694 9.4467 41.1836 9.21186C40.9571 8.59249 40.6955 8.12869 40.3692 7.76764C40.2327 7.61793 40.2327 7.61793 40.4283 7.69865ZM38.8093 7.8102C39.3424 7.9056 39.7362 8.15218 40.0091 8.56314C40.1695 8.80531 40.3171 9.18691 40.4184 9.61549C40.4747 9.85619 40.6181 10.5739 40.6111 10.5798C40.5914 10.6003 39.6251 10.6179 38.4506 10.6194C37.2269 10.6209 37.0652 10.6179 37.068 10.5989C37.0694 10.5871 37.0933 10.3978 37.1214 10.1806C37.203 9.52889 37.2635 9.22067 37.3634 8.91979C37.5322 8.41196 37.805 8.05971 38.2115 7.82488L38.317 7.7647L38.4858 7.77351C38.5786 7.77938 38.7249 7.79552 38.8093 7.8102Z" fill="#999999"/>
    <path d="M19.2121 46V38.216H16.5661V36.844H23.4821V38.216H20.8361V46H19.2121ZM26.8087 46.168C26.174 46.168 25.6 46.028 25.0867 45.748C24.5733 45.4587 24.1673 45.048 23.8687 44.516C23.57 43.9747 23.4207 43.326 23.4207 42.57C23.4207 41.8233 23.57 41.1793 23.8687 40.638C24.1767 40.0967 24.5733 39.6813 25.0587 39.392C25.544 39.1027 26.0527 38.958 26.5847 38.958C27.21 38.958 27.7327 39.098 28.1527 39.378C28.5727 39.6487 28.89 40.0313 29.1047 40.526C29.3193 41.0113 29.4267 41.576 29.4267 42.22C29.4267 42.556 29.4033 42.8173 29.3567 43.004H24.9887C25.0633 43.6107 25.2827 44.082 25.6467 44.418C26.0107 44.754 26.468 44.922 27.0187 44.922C27.3173 44.922 27.5927 44.88 27.8447 44.796C28.106 44.7027 28.3627 44.5767 28.6147 44.418L29.1607 45.426C28.834 45.6407 28.47 45.818 28.0687 45.958C27.6673 46.098 27.2473 46.168 26.8087 46.168ZM24.9747 41.912H28.0267C28.0267 41.38 27.91 40.9647 27.6767 40.666C27.4433 40.358 27.0933 40.204 26.6267 40.204C26.2253 40.204 25.866 40.3533 25.5487 40.652C25.2407 40.9413 25.0493 41.3613 24.9747 41.912ZM29.9743 46L32.1583 42.416L30.1143 39.126H31.8503L32.6203 40.428C32.723 40.6147 32.8257 40.8107 32.9283 41.016C33.0403 41.212 33.1477 41.4033 33.2503 41.59H33.3063C33.3903 41.4033 33.479 41.212 33.5723 41.016C33.6657 40.8107 33.7543 40.6147 33.8383 40.428L34.4963 39.126H36.1623L34.1323 42.598L36.3163 46H34.5803L33.7403 44.642C33.6283 44.4367 33.5117 44.2313 33.3903 44.026C33.2783 43.8207 33.1617 43.62 33.0403 43.424H32.9843C32.891 43.62 32.793 43.8207 32.6903 44.026C32.5877 44.222 32.485 44.4273 32.3823 44.642L31.6543 46H29.9743ZM39.5934 46.168C38.8001 46.168 38.2354 45.9393 37.8994 45.482C37.5727 45.0153 37.4094 44.4133 37.4094 43.676V40.4H36.4294V39.196L37.4934 39.126L37.6894 37.25H39.0334V39.126H40.7834V40.4H39.0334V43.676C39.0334 44.4787 39.3554 44.88 39.9994 44.88C40.1207 44.88 40.2467 44.866 40.3774 44.838C40.5081 44.8007 40.6201 44.7633 40.7134 44.726L40.9934 45.916C40.8067 45.9813 40.5921 46.0373 40.3494 46.084C40.1161 46.14 39.8641 46.168 39.5934 46.168ZM42.23 46V39.126H43.84V46H42.23ZM43.042 37.922C42.7527 37.922 42.5193 37.838 42.342 37.67C42.1647 37.502 42.076 37.278 42.076 36.998C42.076 36.7273 42.1647 36.508 42.342 36.34C42.5193 36.172 42.7527 36.088 43.042 36.088C43.3313 36.088 43.5647 36.172 43.742 36.34C43.9193 36.508 44.008 36.7273 44.008 36.998C44.008 37.278 43.9193 37.502 43.742 37.67C43.5647 37.838 43.3313 37.922 43.042 37.922ZM47.4621 46.168C46.8927 46.168 46.4867 45.9953 46.2441 45.65C46.0107 45.3047 45.8941 44.8333 45.8941 44.236V36.116H47.5041V44.32C47.5041 44.516 47.5414 44.656 47.6161 44.74C47.6907 44.8147 47.7701 44.852 47.8541 44.852C47.8914 44.852 47.9241 44.852 47.9521 44.852C47.9894 44.8427 48.0407 44.8333 48.1061 44.824L48.3161 46.028C48.2227 46.0653 48.1014 46.098 47.9521 46.126C47.8121 46.154 47.6487 46.168 47.4621 46.168ZM52.6349 46.168C52.0002 46.168 51.4262 46.028 50.9129 45.748C50.3995 45.4587 49.9935 45.048 49.6949 44.516C49.3962 43.9747 49.2469 43.326 49.2469 42.57C49.2469 41.8233 49.3962 41.1793 49.6949 40.638C50.0029 40.0967 50.3995 39.6813 50.8849 39.392C51.3702 39.1027 51.8789 38.958 52.4109 38.958C53.0362 38.958 53.5589 39.098 53.9789 39.378C54.3989 39.6487 54.7162 40.0313 54.9309 40.526C55.1455 41.0113 55.2529 41.576 55.2529 42.22C55.2529 42.556 55.2295 42.8173 55.1829 43.004H50.8149C50.8895 43.6107 51.1089 44.082 51.4729 44.418C51.8369 44.754 52.2942 44.922 52.8449 44.922C53.1435 44.922 53.4189 44.88 53.6709 44.796C53.9322 44.7027 54.1889 44.5767 54.4409 44.418L54.9869 45.426C54.6602 45.6407 54.2962 45.818 53.8949 45.958C53.4935 46.098 53.0735 46.168 52.6349 46.168ZM50.8009 41.912H53.8529C53.8529 41.38 53.7362 40.9647 53.5029 40.666C53.2695 40.358 52.9195 40.204 52.4529 40.204C52.0515 40.204 51.6922 40.3533 51.3749 40.652C51.0669 40.9413 50.8755 41.3613 50.8009 41.912ZM58.7086 46.168C58.2419 46.168 57.7752 46.0793 57.3086 45.902C56.8419 45.7153 56.4406 45.4867 56.1046 45.216L56.8606 44.18C57.1686 44.4133 57.4766 44.6 57.7846 44.74C58.0926 44.88 58.4192 44.95 58.7646 44.95C59.1379 44.95 59.4132 44.8707 59.5906 44.712C59.7679 44.5533 59.8566 44.3573 59.8566 44.124C59.8566 43.928 59.7819 43.7693 59.6326 43.648C59.4926 43.5173 59.3106 43.4053 59.0866 43.312C58.8626 43.2093 58.6292 43.1113 58.3866 43.018C58.0879 42.906 57.7892 42.7707 57.4906 42.612C57.2012 42.444 56.9632 42.234 56.7766 41.982C56.5899 41.7207 56.4966 41.3987 56.4966 41.016C56.4966 40.4093 56.7206 39.9147 57.1686 39.532C57.6166 39.1493 58.2232 38.958 58.9886 38.958C59.4739 38.958 59.9079 39.042 60.2906 39.21C60.6732 39.378 61.0046 39.5693 61.2846 39.784L60.5426 40.764C60.2999 40.5867 60.0526 40.4467 59.8006 40.344C59.5579 40.232 59.3012 40.176 59.0306 40.176C58.6852 40.176 58.4286 40.2507 58.2606 40.4C58.0926 40.54 58.0086 40.7173 58.0086 40.932C58.0086 41.2027 58.1486 41.408 58.4286 41.548C58.7086 41.688 59.0352 41.8233 59.4086 41.954C59.7259 42.066 60.0339 42.206 60.3326 42.374C60.6312 42.5327 60.8786 42.7427 61.0746 43.004C61.2799 43.2653 61.3826 43.6107 61.3826 44.04C61.3826 44.628 61.1539 45.132 60.6966 45.552C60.2392 45.9627 59.5766 46.168 58.7086 46.168Z" fill="#999999"/>
    </svg>
           