<svg width="30" height="30" viewBox="0 0 30 30" fill="none" xmlns="http://www.w3.org/2000/svg">
    <rect width="30" height="30" fill="#F0910A"/>
    <path d="M6.75 24.037C6.75 23.8406 6.82902 23.6522 6.96967 23.5133C7.11032 23.3743 7.30109 23.2963 7.5 23.2963H22.5C22.6989 23.2963 22.8897 23.3743 23.0303 23.5133C23.171 23.6522 23.25 23.8406 23.25 24.037C23.25 24.2335 23.171 24.4219 23.0303 24.5608C22.8897 24.6997 22.6989 24.7778 22.5 24.7778H7.5C7.30109 24.7778 7.11032 24.6997 6.96967 24.5608C6.82902 24.4219 6.75 24.2335 6.75 24.037ZM6 7H24C24 7 27 7 27 9.96296V18.8519C27 18.8519 27 21.8148 24 21.8148H6C6 21.8148 3 21.8148 3 18.8519V9.96296C3 9.96296 3 7 6 7Z" fill="white"/>
    </svg>
   