<svg width="30" height="30" viewBox="0 0 30 30" fill="none" xmlns="http://www.w3.org/2000/svg">
    <rect width="30" height="30" fill="#507358"/>
    <path d="M5.02017 5.10754C5.03025 5.16804 5.07731 5.50418 5.12437 5.85712C5.17143 6.2067 5.21849 6.52939 5.22857 6.56972L5.24202 6.64703H14.9866H24.7277L24.8353 5.88065C24.8924 5.46048 24.9395 5.09073 24.9395 5.05712C24.9395 5.00334 24.442 4.99997 14.9697 4.99997H5L5.02017 5.10754Z" fill="white"/>
    <path d="M5.37646 7.67908C5.37646 7.70597 5.42016 8.02866 5.89747 11.5043C6.01512 12.3715 6.23697 13.9749 6.38487 15.0673C6.65378 17.0371 6.93949 19.1312 7.25882 21.4539C7.34957 22.1194 7.49747 23.1883 7.58487 23.8303L7.74285 25.0001H14.9798H22.2134L22.2336 24.8892C22.2437 24.832 22.3244 24.2303 22.4185 23.5547C22.5092 22.8791 22.6605 21.7766 22.7513 21.1009C22.8454 20.4253 23.0437 18.9799 23.1916 17.8908C23.3395 16.7984 23.5378 15.3598 23.6286 14.6875C24.0319 11.7429 24.1428 10.9396 24.3513 9.42025C24.4689 8.53286 24.5731 7.7732 24.5832 7.7295L24.5933 7.65555H14.9865C9.69915 7.65555 5.37646 7.66563 5.37646 7.67908Z" fill="white"/>
    </svg>
    