<svg width="30" height="30" viewBox="0 0 30 30" fill="none" xmlns="http://www.w3.org/2000/svg">
    <rect width="30" height="30" fill="#C3E991"/>
    <path d="M18.4775 12.9135V12.8759C18.4399 11.6729 17.7632 10.6579 16.7857 10.0564L16.5226 2.87594C16.5226 2.65038 16.297 2.5 16.0339 2.5H13.9662C13.703 2.5 13.4775 2.68797 13.4775 2.87594L13.2143 10.0564C12.2369 10.6203 11.5978 11.6353 11.5226 12.8383V12.8759V12.9887V26.4098V26.4474V26.485C11.5226 27.0489 13.0639 27.5 14.9812 27.5C16.8985 27.5 18.4399 27.0489 18.4399 26.485V26.4474V26.4098V13.1015C18.4399 13.0639 18.4399 13.0263 18.4399 13.0263C18.4775 12.9887 18.4775 12.9511 18.4775 12.9135Z" fill="white"/>
    </svg>
    