<svg width="30" height="30" viewBox="0 0 30 30" fill="none" xmlns="http://www.w3.org/2000/svg">
    <rect width="30" height="30" fill="#FFB70E"/>
    <path d="M21.25 3.80682C21.25 3.75 21.25 3.69318 21.25 3.63636C21.25 3.01136 20.7387 2.5 20.1137 2.5H9.88637C9.26137 2.5 8.75001 3.01136 8.75001 3.63636C8.75001 3.69318 8.75001 3.75 8.75001 3.80682C8.4091 3.97727 8.18182 4.375 8.18182 4.77273V25.2273C8.18182 25.625 8.4091 26.0227 8.75001 26.1932C8.75001 26.25 8.75001 26.3068 8.75001 26.3636C8.75001 26.9886 9.26137 27.5 9.88637 27.5H20.1137C20.7387 27.5 21.25 26.9886 21.25 26.3636C21.25 26.3068 21.25 26.25 21.25 26.1932C21.5909 26.0227 21.8182 25.625 21.8182 25.2273V4.77273C21.8182 4.375 21.5909 3.97727 21.25 3.80682ZM11.5909 24.6591C11.5909 25 11.3636 25.2273 11.0227 25.2273C10.6818 25.2273 10.4546 25 10.4546 24.6591V5.34091C10.4546 5 10.6818 4.77273 11.0227 4.77273C11.3636 4.77273 11.5909 5 11.5909 5.34091V24.6591Z" fill="white"/>
    </svg>
    