<svg width="30" height="30" viewBox="0 0 30 30" fill="none" xmlns="http://www.w3.org/2000/svg">
    <rect width="30" height="30" fill="#0261B8"/>
    <path d="M8.09725 9.4747C7.95153 8.5603 7.73296 7.5189 7.10151 6.8077C6.81008 6.4775 6.34864 6.1727 5.91148 6.1727C5.37718 6.1473 5.01289 6.5791 4.77003 7.0363C4.33287 7.8237 4.16287 8.7635 4.01715 9.6271C3.89572 10.4399 3.79857 11.2527 3.75 12.0655C3.77429 12.0655 3.77429 12.0655 3.79857 12.0655C4.77003 11.8877 5.74148 11.7099 6.71293 11.5575C7.22294 11.4559 7.70867 11.3797 8.21868 11.2781C8.24297 10.6685 8.1944 10.0589 8.09725 9.4747Z" fill="white"/>
    <path d="M26.7492 14.5039C25.1706 15.0119 23.592 15.4945 22.0134 16.0025C20.8233 16.3835 19.6333 16.7391 18.4676 17.1201C18.249 16.0025 18.249 14.8341 18.3461 13.6911C18.419 12.7005 18.5647 11.7353 18.6618 10.7447C18.7833 9.57629 18.8318 8.38249 18.5647 7.23949C18.3461 6.24889 17.8118 5.38529 16.8404 5.08049C16.3546 4.92809 15.8203 5.02969 15.3346 5.08049C14.7517 5.13129 14.1446 5.18209 13.5617 5.23289C12.3717 5.33449 11.2059 5.46149 10.0159 5.56309C8.82585 5.66469 7.66011 5.79169 6.47008 5.89329C6.37293 5.89329 6.27579 5.91869 6.15436 5.91869C6.51865 5.99489 6.85866 6.19809 7.12581 6.45209C7.80583 7.11249 8.07298 8.15389 8.24298 9.0683C8.48584 10.4145 8.51013 11.7861 8.46156 13.1577C8.43727 13.6149 8.41298 14.0975 8.3887 14.5547C8.3887 14.7325 8.36441 14.9357 8.36441 15.1135C8.36441 15.2151 8.41298 15.4691 8.29155 15.4691C8.3887 15.4437 8.36441 15.5453 8.36441 15.6215C8.36441 15.7231 8.36441 15.8247 8.36441 15.9263C8.36441 16.1803 8.36441 16.4597 8.36441 16.7137C8.36441 17.2979 8.3887 17.8821 8.43727 18.4663C8.53442 19.5331 8.70442 20.5999 9.06872 21.5905C9.40872 22.5557 9.94302 23.3685 10.7202 24.0035C11.3759 24.5623 12.3474 25.2735 13.2217 24.8925C13.756 24.6639 14.1203 24.1051 14.4117 23.5971C14.7275 22.9875 14.9703 22.3017 15.1889 21.6413C15.6018 20.3459 15.8932 19.0251 16.1604 17.7043C16.2332 17.7551 16.2818 17.8059 16.3546 17.8821C16.4032 17.9075 16.2575 18.3647 16.2575 18.4155C16.1603 18.8727 16.0632 19.3299 15.9418 19.7617C15.7718 20.4729 15.5775 21.2095 15.3589 21.8953C15.116 22.6573 14.8489 23.4193 14.436 24.0797C14.2417 24.3845 14.0232 24.6893 13.7317 24.9179C15.7961 24.0543 17.8361 23.1907 19.9004 22.3271C20.9933 21.8699 22.1105 21.4127 23.2034 20.9301C24.1505 20.5237 24.7577 19.6601 25.2191 18.7457C25.5834 18.0599 25.8749 17.3233 26.142 16.5867C26.2877 16.2057 26.4092 15.8247 26.5306 15.4437C26.6035 15.2405 26.652 15.0627 26.7249 14.8595C26.7735 14.7579 26.7978 14.6309 26.822 14.5293C26.8463 14.5293 26.7735 14.5039 26.7492 14.5039Z" fill="white"/>
    </svg>
    