<svg width="30" height="30" viewBox="0 0 30 30" fill="none" xmlns="http://www.w3.org/2000/svg">
    <rect width="30" height="30" fill="#FFB70E"/>
    <path d="M19.5836 21.6317C19.5836 22.0938 19.1696 22.4743 18.6669 22.4743H11.3331C10.8304 22.4743 10.4164 22.0938 10.4164 21.6317V18.8051C10.4164 18.343 10.8304 17.9625 11.3331 17.9625H18.6669C19.1696 17.9625 19.5836 18.343 19.5836 18.8051V21.6317Z" fill="white"/>
    <path d="M19.5836 26.66C19.5836 27.122 19.1696 27.5025 18.6669 27.5025H11.3331C10.8304 27.5025 10.4164 27.122 10.4164 26.66V23.8333C10.4164 23.3713 10.8304 22.9908 11.3331 22.9908H18.6669C19.1696 22.9908 19.5836 23.3713 19.5836 23.8333V26.66Z" fill="white"/>
    <path d="M19.5836 16.6307C19.5836 17.0928 19.1696 17.4733 18.6669 17.4733H11.3331C10.8304 17.4733 10.4164 17.0928 10.4164 16.6307V13.8041C10.4164 13.342 10.8304 12.9615 11.3331 12.9615H18.6669C19.1696 12.9615 19.5836 13.342 19.5836 13.8041V16.6307Z" fill="white"/>
    <path d="M16.4194 5.89487V4.91641H13.5806V5.89487C11.7471 6.43845 10.4164 8.04203 10.4164 9.89022V11.6025C10.4164 12.0646 10.8304 12.4451 11.3331 12.4451H18.6669C19.1696 12.4451 19.5836 12.0646 19.5836 11.6025V9.89022C19.5836 8.01485 18.2529 6.43845 16.4194 5.89487Z" fill="white"/>
    <path d="M17.0701 4.1554C17.0701 4.2913 16.9518 4.40002 16.804 4.40002H13.1962C13.0483 4.40002 12.9301 4.2913 12.9301 4.1554V2.74208C12.9301 2.60618 13.0483 2.49747 13.1962 2.49747H16.8335C16.9518 2.49747 17.0701 2.60618 17.0701 2.74208V4.1554Z" fill="white"/>
    </svg>
    