<svg width="30" height="30" viewBox="0 0 30 30" fill="none" xmlns="http://www.w3.org/2000/svg">
    <rect width="30" height="30" fill="#BB4F35"/>
    <path d="M15.0037 5.0213C14.6489 5.06819 14.266 5.16039 13.9909 5.26823C13.8175 5.33543 13.7831 5.34325 13.5377 5.38232C12.3265 5.56986 11.4951 6.19656 11.0372 7.27179C10.8481 7.71251 10.759 8.05478 10.5589 9.08781C10.5433 9.16283 10.5386 9.17064 10.5011 9.17064C10.3698 9.16908 9.52277 9.09094 9.51496 9.07844C9.51027 9.07062 9.12581 9.48478 8.66165 9.99739L7.81771 10.9304L7.82865 11.1648C7.8896 12.4776 7.88335 13.7513 7.8099 14.9844C7.65986 17.4959 7.28635 19.6792 6.49086 22.6892C6.4346 22.8986 6.3924 23.0737 6.39396 23.0768C6.40178 23.0846 7.29728 23.4488 8.61476 23.9817C8.83825 24.0723 9.02891 24.1552 9.03673 24.1645C9.05392 24.1849 9.14613 24.2099 9.46651 24.2818C12.2984 24.9178 14.6864 25.1132 17.5073 24.9397C18.2856 24.8913 18.681 24.8569 20.5002 24.6834C21.7567 24.5631 22.4865 24.5052 23.2273 24.4693C23.4336 24.4599 23.604 24.4505 23.6055 24.449C23.6149 24.4412 23.3742 23.2237 23.1632 22.2047C22.9179 21.0279 22.8038 20.47 22.7132 19.9933C22.174 17.1677 21.9692 15.0907 21.9692 12.4135C21.9692 11.3008 22.0021 10.2709 22.0708 9.24879C22.0818 9.07219 22.088 8.92528 22.0849 8.92059C22.0802 8.91746 21.7239 8.94091 21.2925 8.97216C20.3158 9.04562 19.3249 9.10969 19.3171 9.10188C19.314 9.09875 19.2374 8.8612 19.1483 8.5752C18.8045 7.46715 18.5763 6.92328 18.245 6.42786C17.9652 6.00745 17.6011 5.65738 17.2057 5.4292C16.9228 5.2651 16.5165 5.12445 16.1398 5.06037C15.7757 4.99786 15.3084 4.98223 15.0037 5.0213ZM16.5868 6.16061C17.2307 6.41536 17.6386 6.94985 17.8902 7.8688C17.9543 8.10322 18.1762 9.15502 18.1637 9.16752C18.1606 9.17064 18.0996 9.1769 18.0278 9.18158L17.8965 9.19096L17.8527 9.04405C17.7543 8.71586 17.5214 8.02196 17.4261 7.7719C17.1744 7.11238 16.8838 6.61852 16.5212 6.23407C16.3696 6.07466 16.3696 6.07466 16.5868 6.16061ZM14.788 6.27939C15.3803 6.38097 15.8179 6.64353 16.1211 7.08113C16.2992 7.33899 16.4633 7.74533 16.5759 8.20168C16.6384 8.45799 16.7978 9.22222 16.79 9.22847C16.7681 9.25035 15.6944 9.2691 14.3895 9.27067C13.0298 9.27223 12.8501 9.2691 12.8532 9.24879C12.8547 9.23628 12.8813 9.03468 12.9126 8.80338C13.0032 8.10948 13.0704 7.78128 13.1814 7.4609C13.3689 6.92015 13.6721 6.54507 14.1238 6.29502L14.241 6.23094L14.4285 6.24032C14.5317 6.24657 14.6942 6.26376 14.788 6.27939Z" fill="white"/>
    </svg>
    